<svg id="Capa_1" data-name="Capa 1" xmlns="http://www.w3.org/2000/svg" viewBox="0 0 105.47 600"><defs><style>.cls-1{fill:#3c6ec7;}.cls-2{fill:#05255e;}.cls-3{fill:#fff;}</style></defs><title>Sin título-2</title><rect class="cls-1" width="43" height="600"/><polygon class="cls-2" points="76.02 0 43 0 43 600 76.02 600 105.47 300 76.02 0"/><path class="cls-3" d="M71.48,494v1.6L61.3,502.2v.07q1.79-.13,3.29-.13h6.9v1.3H59.34v-1.59l10.14-6.58v-.07l-1.44.07q-1.22.06-1.74,0h-7V494Z"/><path class="cls-3" d="M71.65,486.74a4.15,4.15,0,0,1-1.23,3.17A4.77,4.77,0,0,1,67,491.07,5.3,5.3,0,0,1,63.51,490a3.57,3.57,0,0,1-1.29-2.9,3.41,3.41,0,0,1,1.13-2.69,4.32,4.32,0,0,1,3-1h.87v6.24a3.62,3.62,0,0,0,2.43-.81,2.78,2.78,0,0,0,.83-2.15,7.25,7.25,0,0,0-.61-2.89h1.23a7.24,7.24,0,0,1,.45,1.38A7.73,7.73,0,0,1,71.65,486.74Zm-8.28.37a2.23,2.23,0,0,0,.71,1.74,3.3,3.3,0,0,0,2,.76v-4.73a3,3,0,0,0-2,.58A2,2,0,0,0,63.37,487.11Z"/><path class="cls-3" d="M71.65,477.13a3.86,3.86,0,0,1-1.22,3A5,5,0,0,1,67,481.26a5.17,5.17,0,0,1-3.53-1.09A3.93,3.93,0,0,1,62.22,477a6.14,6.14,0,0,1,.14-1.3,4.28,4.28,0,0,1,.33-1l1.17.42a6.44,6.44,0,0,0-.3,1,4.39,4.39,0,0,0-.12,1q0,2.76,3.54,2.76a4.22,4.22,0,0,0,2.57-.67,2.34,2.34,0,0,0,.9-2,6.07,6.07,0,0,0-.49-2.32h1.22A4.92,4.92,0,0,1,71.65,477.13Z"/><path class="cls-3" d="M71.65,468.55a4.15,4.15,0,0,1-1.23,3.17A4.77,4.77,0,0,1,67,472.88a5.3,5.3,0,0,1-3.49-1.08,3.57,3.57,0,0,1-1.29-2.9,3.41,3.41,0,0,1,1.13-2.69,4.32,4.32,0,0,1,3-1h.87v6.24a3.62,3.62,0,0,0,2.43-.81,2.78,2.78,0,0,0,.83-2.15,7.25,7.25,0,0,0-.61-2.89h1.23a7.24,7.24,0,0,1,.45,1.38A7.73,7.73,0,0,1,71.65,468.55Zm-8.28.37a2.23,2.23,0,0,0,.71,1.74,3.3,3.3,0,0,0,2,.76V466.7a3,3,0,0,0-2,.58A2,2,0,0,0,63.37,468.93Z"/><path class="cls-3" d="M69,456.73a2.28,2.28,0,0,1,2,.94,4.41,4.41,0,0,1,.69,2.64,5.72,5.72,0,0,1-.57,2.81H69.8a6.78,6.78,0,0,0,.52-1.4,5.82,5.82,0,0,0,.19-1.44,3.26,3.26,0,0,0-.34-1.65,1.19,1.19,0,0,0-2-.12,7.2,7.2,0,0,0-.89,1.79,9.68,9.68,0,0,1-.83,1.8,2.46,2.46,0,0,1-.8.79,2.09,2.09,0,0,1-1.07.26,2,2,0,0,1-1.76-.9,4.18,4.18,0,0,1-.64-2.47,7.2,7.2,0,0,1,.6-2.86l1.12.49a6.53,6.53,0,0,0-.56,2.47,2.83,2.83,0,0,0,.31,1.47,1,1,0,0,0,.85.5,1,1,0,0,0,.62-.19,1.84,1.84,0,0,0,.49-.6,13.39,13.39,0,0,0,.67-1.59,5.91,5.91,0,0,1,1.19-2.18A2.1,2.1,0,0,1,69,456.73Z"/><path class="cls-3" d="M59.92,454.29a.92.92,0,0,1-.69-.23.85.85,0,0,1,0-1.15.9.9,0,0,1,.69-.24.92.92,0,0,1,.69.24.8.8,0,0,1,.23.57.79.79,0,0,1-.23.58A.93.93,0,0,1,59.92,454.29Zm11.56-1.49v1.37h-9.1V452.8Z"/><path class="cls-3" d="M70.26,443.41v.07a3.22,3.22,0,0,1,1.39,2.84,3.35,3.35,0,0,1-1.22,2.76,5.39,5.39,0,0,1-3.47,1,5.48,5.48,0,0,1-3.49-1,3.33,3.33,0,0,1-1.25-2.76,3.29,3.29,0,0,1,1.34-2.83v-.11l-.66.06-.64,0h-3.7v-1.37H71.48v1.12Zm.23,2.74a2.49,2.49,0,0,0-.77-2,3.89,3.89,0,0,0-2.48-.63H67a4.58,4.58,0,0,0-2.76.64,2.42,2.42,0,0,0-.83,2,2.1,2.1,0,0,0,.94,1.85,4.7,4.7,0,0,0,2.66.64A4.5,4.5,0,0,0,69.6,448,2.15,2.15,0,0,0,70.49,446.16Z"/><path class="cls-3" d="M71.48,433.32l-1.29.27v.07A3.81,3.81,0,0,1,71.34,435a4.1,4.1,0,0,1,.3,1.68,3,3,0,0,1-.7,2.11,2.55,2.55,0,0,1-2,.76q-2.76,0-2.89-4.39l0-1.54h-.56a2.32,2.32,0,0,0-1.58.46,1.88,1.88,0,0,0-.51,1.47,6,6,0,0,0,.7,2.56l-1.05.42a6.4,6.4,0,0,1-.57-1.47,6.32,6.32,0,0,1-.21-1.6,3.44,3.44,0,0,1,.72-2.4,3,3,0,0,1,2.32-.78h6.21Zm-1,3.1a2.78,2.78,0,0,0-.71-2,2.62,2.62,0,0,0-2-.73H67l.06,1.37a5,5,0,0,0,.51,2.36,1.54,1.54,0,0,0,1.41.72,1.42,1.42,0,0,0,1.14-.45A1.86,1.86,0,0,0,70.51,436.42Z"/><path class="cls-3" d="M70.26,423v.07a3.22,3.22,0,0,1,1.39,2.84,3.35,3.35,0,0,1-1.22,2.76,5.39,5.39,0,0,1-3.47,1,5.48,5.48,0,0,1-3.49-1,3.33,3.33,0,0,1-1.25-2.76,3.29,3.29,0,0,1,1.34-2.83V423l-.66.06-.64,0h-3.7V421.7H71.48v1.12Zm.23,2.74a2.49,2.49,0,0,0-.77-2,3.89,3.89,0,0,0-2.48-.63H67a4.58,4.58,0,0,0-2.76.64,2.42,2.42,0,0,0-.83,2,2.1,2.1,0,0,0,.94,1.85,4.7,4.7,0,0,0,2.66.64,4.5,4.5,0,0,0,2.63-.64A2.15,2.15,0,0,0,70.49,425.74Z"/><path class="cls-3" d="M71.65,414.65a4.15,4.15,0,0,1-1.23,3.17A4.77,4.77,0,0,1,67,419a5.3,5.3,0,0,1-3.49-1.08,3.57,3.57,0,0,1-1.29-2.9,3.41,3.41,0,0,1,1.13-2.69,4.32,4.32,0,0,1,3-1h.87v6.24a3.62,3.62,0,0,0,2.43-.81,2.78,2.78,0,0,0,.83-2.15,7.25,7.25,0,0,0-.61-2.89h1.23a7.24,7.24,0,0,1,.45,1.38A7.73,7.73,0,0,1,71.65,414.65Zm-8.28.37a2.23,2.23,0,0,0,.71,1.74,3.3,3.3,0,0,0,2,.76v-4.73a3,3,0,0,0-2,.58A2,2,0,0,0,63.37,415Z"/><path class="cls-3" d="M69,402.82a2.28,2.28,0,0,1,2,.94,4.41,4.41,0,0,1,.69,2.64,5.72,5.72,0,0,1-.57,2.81H69.8a6.78,6.78,0,0,0,.52-1.4,5.82,5.82,0,0,0,.19-1.44,3.26,3.26,0,0,0-.34-1.65,1.19,1.19,0,0,0-2-.12,7.2,7.2,0,0,0-.89,1.79,9.68,9.68,0,0,1-.83,1.8,2.46,2.46,0,0,1-.8.79,2.09,2.09,0,0,1-1.07.26,2,2,0,0,1-1.76-.9,4.18,4.18,0,0,1-.64-2.47,7.2,7.2,0,0,1,.6-2.86l1.12.49a6.53,6.53,0,0,0-.56,2.47,2.83,2.83,0,0,0,.31,1.47,1,1,0,0,0,.85.5,1,1,0,0,0,.62-.19,1.84,1.84,0,0,0,.49-.6,13.39,13.39,0,0,0,.67-1.59,5.91,5.91,0,0,1,1.19-2.18A2.1,2.1,0,0,1,69,402.82Z"/><path class="cls-3" d="M62.38,397v-1.47l5.19-2a19.69,19.69,0,0,1,2.56-.81v-.07q-.42-.11-1.45-.45T62.38,390V388.5l10.36,3.89a5.17,5.17,0,0,1,2.18,1.35,2.86,2.86,0,0,1,.64,1.9,5.49,5.49,0,0,1-.14,1.24h-1.1a4.76,4.76,0,0,0,.1-1,2.09,2.09,0,0,0-1.59-2l-1.29-.5Z"/><path class="cls-3" d="M71.65,378.17a4.15,4.15,0,0,1-1.23,3.17A4.77,4.77,0,0,1,67,382.5a5.3,5.3,0,0,1-3.49-1.08,3.57,3.57,0,0,1-1.29-2.9,3.41,3.41,0,0,1,1.13-2.69,4.32,4.32,0,0,1,3-1h.87v6.24a3.62,3.62,0,0,0,2.43-.81,2.78,2.78,0,0,0,.83-2.15,7.25,7.25,0,0,0-.61-2.89h1.23a7.24,7.24,0,0,1,.45,1.38A7.73,7.73,0,0,1,71.65,378.17Zm-8.28.37a2.23,2.23,0,0,0,.71,1.74,3.3,3.3,0,0,0,2,.76v-4.73a3,3,0,0,0-2,.58A2,2,0,0,0,63.37,378.54Z"/><path class="cls-3" d="M66.82,370l-4.44,3.15v-1.56l3.49-2.39-3.49-2.38v-1.54l4.44,3.15,4.66-3.31v1.55l-3.69,2.54,3.69,2.56v1.55Z"/><path class="cls-3" d="M71.65,358.79a3.9,3.9,0,0,1-.33,1.61,3,3,0,0,1-1,1.23v.1a12.2,12.2,0,0,1,1.51-.1h3.74V363H62.38v-1.11l1.25-.19v-.07a3.18,3.18,0,0,1-1.08-1.23,3.73,3.73,0,0,1-.33-1.61A3.34,3.34,0,0,1,63.45,356a6.61,6.61,0,0,1,7,0A3.34,3.34,0,0,1,71.65,358.79Zm-8.26.2a2.42,2.42,0,0,0,.77,2,4,4,0,0,0,2.46.64h.31a4.57,4.57,0,0,0,2.74-.64,2.41,2.41,0,0,0,.83-2,2.12,2.12,0,0,0-1-1.84,4.55,4.55,0,0,0-2.63-.67,4.38,4.38,0,0,0-2.61.67A2.19,2.19,0,0,0,63.39,359Z"/><path class="cls-3" d="M71.65,348.49a4.15,4.15,0,0,1-1.23,3.17A4.77,4.77,0,0,1,67,352.82a5.29,5.29,0,0,1-3.49-1.08,3.57,3.57,0,0,1-1.29-2.9,3.4,3.4,0,0,1,1.13-2.69,4.32,4.32,0,0,1,3-1h.87v6.24a3.61,3.61,0,0,0,2.43-.8,2.78,2.78,0,0,0,.83-2.15,7.26,7.26,0,0,0-.61-2.89h1.23a7.26,7.26,0,0,1,.45,1.38A7.72,7.72,0,0,1,71.65,348.49Zm-8.28.37a2.23,2.23,0,0,0,.71,1.74,3.3,3.3,0,0,0,2,.76v-4.73a3,3,0,0,0-2,.58A2,2,0,0,0,63.37,348.86Z"/><path class="cls-3" d="M71.65,338.88a3.85,3.85,0,0,1-1.22,3A5,5,0,0,1,67,343a5.17,5.17,0,0,1-3.53-1.09,3.93,3.93,0,0,1-1.25-3.12,6.15,6.15,0,0,1,.14-1.31,4.28,4.28,0,0,1,.33-1l1.17.42a6.44,6.44,0,0,0-.3,1,4.39,4.39,0,0,0-.12,1q0,2.76,3.54,2.76a4.23,4.23,0,0,0,2.57-.67,2.34,2.34,0,0,0,.9-2,6.07,6.07,0,0,0-.49-2.32h1.22A4.93,4.93,0,0,1,71.65,338.88Z"/><path class="cls-3" d="M70.51,331.2a4.44,4.44,0,0,0-.05-.7,4.49,4.49,0,0,0-.11-.54H71.4a2.51,2.51,0,0,1,.18.66,4.92,4.92,0,0,1,.07.78q0,2.63-2.78,2.63H63.45v1.3h-.66l-.57-1.3-1.94-.58v-.79h2.11V330h1.07v2.63h5.35a1.85,1.85,0,0,0,1.26-.39A1.35,1.35,0,0,0,70.51,331.2Z"/><path class="cls-3" d="M71.48,322.27l-1.29.27v.07A3.82,3.82,0,0,1,71.34,324a4.1,4.1,0,0,1,.3,1.68,3,3,0,0,1-.7,2.11,2.55,2.55,0,0,1-2,.76q-2.76,0-2.89-4.39l0-1.54h-.56a2.32,2.32,0,0,0-1.58.46,1.88,1.88,0,0,0-.51,1.47,6,6,0,0,0,.7,2.56l-1.05.42a6.4,6.4,0,0,1-.57-1.47,6.33,6.33,0,0,1-.21-1.6A3.44,3.44,0,0,1,63,322a3,3,0,0,1,2.32-.78h6.21Zm-1,3.1a2.78,2.78,0,0,0-.71-2,2.62,2.62,0,0,0-2-.73H67l.06,1.37a5,5,0,0,0,.51,2.36,1.54,1.54,0,0,0,1.41.72,1.42,1.42,0,0,0,1.14-.45A1.86,1.86,0,0,0,70.51,325.36Z"/><path class="cls-3" d="M70.51,315.18a4.44,4.44,0,0,0-.05-.7,4.49,4.49,0,0,0-.11-.54H71.4a2.51,2.51,0,0,1,.18.66,4.92,4.92,0,0,1,.07.78q0,2.63-2.78,2.63H63.45v1.3h-.66l-.57-1.3-1.94-.58v-.79h2.11V314h1.07v2.63h5.35a1.85,1.85,0,0,0,1.26-.39A1.35,1.35,0,0,0,70.51,315.18Z"/><path class="cls-3" d="M59.92,311.93a.92.92,0,0,1-.69-.23.85.85,0,0,1,0-1.15.9.9,0,0,1,.69-.24.91.91,0,0,1,.69.24.8.8,0,0,1,.23.57.79.79,0,0,1-.23.58A.93.93,0,0,1,59.92,311.93Zm11.56-1.49v1.37h-9.1v-1.37Z"/><path class="cls-3" d="M71.48,305.23l-9.1,3.44v-1.47l5.4-1.95a25.66,25.66,0,0,1,2.46-.78v-.07a18.62,18.62,0,0,1-1.82-.57l-6-2.17v-1.47l9.1,3.44Z"/><path class="cls-3" d="M71.48,292.85l-1.29.27v.07a3.82,3.82,0,0,1,1.16,1.35,4.1,4.1,0,0,1,.3,1.68,3,3,0,0,1-.7,2.11,2.55,2.55,0,0,1-2,.76q-2.76,0-2.89-4.39l0-1.54h-.56a2.32,2.32,0,0,0-1.58.46,1.88,1.88,0,0,0-.51,1.47,6,6,0,0,0,.7,2.56l-1.05.42a6.4,6.4,0,0,1-.57-1.47,6.33,6.33,0,0,1-.21-1.6,3.44,3.44,0,0,1,.72-2.4,3,3,0,0,1,2.32-.78h6.21Zm-1,3.1a2.78,2.78,0,0,0-.71-2,2.62,2.62,0,0,0-2-.73H67l.06,1.37a5,5,0,0,0,.51,2.36,1.54,1.54,0,0,0,1.41.72,1.42,1.42,0,0,0,1.14-.45A1.86,1.86,0,0,0,70.51,295.95Z"/><path class="cls-3" d="M69,282.85a2.28,2.28,0,0,1,2,.94,4.41,4.41,0,0,1,.69,2.64,5.72,5.72,0,0,1-.57,2.81H69.8a6.77,6.77,0,0,0,.52-1.4,5.81,5.81,0,0,0,.19-1.44,3.26,3.26,0,0,0-.34-1.65,1.19,1.19,0,0,0-2-.12,7.2,7.2,0,0,0-.89,1.79,9.64,9.64,0,0,1-.83,1.8,2.45,2.45,0,0,1-.8.79,2.1,2.1,0,0,1-1.07.26,2,2,0,0,1-1.76-.9,4.18,4.18,0,0,1-.64-2.47,7.19,7.19,0,0,1,.6-2.86l1.12.49a6.53,6.53,0,0,0-.56,2.47,2.83,2.83,0,0,0,.31,1.47,1,1,0,0,0,.85.5,1,1,0,0,0,.62-.19,1.84,1.84,0,0,0,.49-.6,13.37,13.37,0,0,0,.67-1.59,5.92,5.92,0,0,1,1.19-2.18A2.1,2.1,0,0,1,69,282.85Z"/><path class="cls-3" d="M70.26,269.42v.07a3.22,3.22,0,0,1,1.39,2.84,3.35,3.35,0,0,1-1.22,2.76,5.39,5.39,0,0,1-3.47,1,5.48,5.48,0,0,1-3.49-1,3.33,3.33,0,0,1-1.25-2.76,3.29,3.29,0,0,1,1.34-2.82v-.11l-.66.06-.64,0h-3.7v-1.37H71.48v1.12Zm.23,2.74a2.49,2.49,0,0,0-.77-2,3.89,3.89,0,0,0-2.48-.63H67a4.58,4.58,0,0,0-2.76.64,2.43,2.43,0,0,0-.83,2,2.09,2.09,0,0,0,.94,1.85,4.7,4.7,0,0,0,2.66.64A4.51,4.51,0,0,0,69.6,274,2.15,2.15,0,0,0,70.49,272.16Z"/><path class="cls-3" d="M71.65,261.07a4.15,4.15,0,0,1-1.23,3.17A4.77,4.77,0,0,1,67,265.4a5.29,5.29,0,0,1-3.49-1.08,3.57,3.57,0,0,1-1.29-2.9,3.4,3.4,0,0,1,1.13-2.69,4.32,4.32,0,0,1,3-1h.87V264a3.62,3.62,0,0,0,2.43-.81,2.78,2.78,0,0,0,.83-2.15,7.26,7.26,0,0,0-.61-2.89h1.23a7.26,7.26,0,0,1,.45,1.38A7.72,7.72,0,0,1,71.65,261.07Zm-8.28.37a2.23,2.23,0,0,0,.71,1.74,3.3,3.3,0,0,0,2,.76v-4.73a3,3,0,0,0-2,.58A2,2,0,0,0,63.37,261.44Z"/><path class="cls-3" d="M62.38,243h.87l.2,1.68a3,3,0,0,1,1.82-.59,2.7,2.7,0,0,1,2.13.91,3.65,3.65,0,0,1,.8,2.49,4.12,4.12,0,0,1-.07.76,1.36,1.36,0,0,0,1.17.88.59.59,0,0,0,.55-.31,2.22,2.22,0,0,0,.18-1v-1.6a3.57,3.57,0,0,1,.62-2.26,2.17,2.17,0,0,1,1.81-.79,2.59,2.59,0,0,1,2.3,1.21,6.43,6.43,0,0,1,.79,3.52,4.79,4.79,0,0,1-.66,2.74,2.15,2.15,0,0,1-1.88,1,2.11,2.11,0,0,1-1.44-.53,2.69,2.69,0,0,1-.82-1.49,1.43,1.43,0,0,1-.49.58,1.3,1.3,0,0,1-.77.24,1.47,1.47,0,0,1-.87-.26,2.78,2.78,0,0,1-.72-.83,2.45,2.45,0,0,1-1,1.14,2.91,2.91,0,0,1-1.59.44,3,3,0,0,1-2.3-.89,3.63,3.63,0,0,1-.81-2.53,4.57,4.57,0,0,1,.17-1.28Zm2.91,6.48a1.86,1.86,0,0,0,1.44-.54,2.14,2.14,0,0,0,.49-1.5,1.75,1.75,0,0,0-2-2,1.8,1.8,0,0,0-2.05,2,2,2,0,0,0,.52,1.49A2.11,2.11,0,0,0,65.3,249.43Zm7.71.74a1.24,1.24,0,0,0,1.12-.62,3.41,3.41,0,0,0,.38-1.78,4.93,4.93,0,0,0-.52-2.56,1.59,1.59,0,0,0-1.41-.83,1.11,1.11,0,0,0-1,.45,3.51,3.51,0,0,0-.29,1.71v1.64a2.16,2.16,0,0,0,.45,1.45A1.6,1.6,0,0,0,73,250.18Z"/><path class="cls-3" d="M62.22,236.65a5.34,5.34,0,0,1,.1-1.08l1.28.19a4.65,4.65,0,0,0-.12,1,2.41,2.41,0,0,0,.9,1.88,3.28,3.28,0,0,0,2.23.78h4.88v1.37h-9.1v-1.13l1.69-.16v-.07a4,4,0,0,1-1.37-1.21A2.72,2.72,0,0,1,62.22,236.65Z"/><path class="cls-3" d="M62.38,232.26h5.9a2.38,2.38,0,0,0,1.66-.5,2,2,0,0,0,.55-1.58,2.57,2.57,0,0,0-.78-2.08,4,4,0,0,0-2.55-.66H62.38v-1.37h9.1v1.13l-1.22.2v.07a2.74,2.74,0,0,1,1,1.17,3.91,3.91,0,0,1,.36,1.71,3.45,3.45,0,0,1-.79,2.47,3.37,3.37,0,0,1-2.52.82h-6Z"/><path class="cls-3" d="M71.65,218.64a3.9,3.9,0,0,1-.33,1.61,3,3,0,0,1-1,1.23v.1a12.29,12.29,0,0,1,1.51-.1h3.74v1.37H62.38v-1.12l1.25-.19v-.07a3.19,3.19,0,0,1-1.08-1.23,3.73,3.73,0,0,1-.33-1.61,3.34,3.34,0,0,1,1.24-2.78,6.61,6.61,0,0,1,7,0A3.34,3.34,0,0,1,71.65,218.64Zm-8.26.2a2.42,2.42,0,0,0,.77,2,4,4,0,0,0,2.46.64h.31a4.57,4.57,0,0,0,2.74-.64,2.41,2.41,0,0,0,.83-2,2.12,2.12,0,0,0-1-1.84,4.54,4.54,0,0,0-2.63-.67,4.37,4.37,0,0,0-2.61.67A2.18,2.18,0,0,0,63.39,218.83Z"/><path class="cls-3" d="M66.92,204.35a5,5,0,0,1,3.47,1.11,3.92,3.92,0,0,1,1.25,3.08,4.07,4.07,0,0,1-.57,2.16,3.78,3.78,0,0,1-1.64,1.45,5.75,5.75,0,0,1-2.51.51,5,5,0,0,1-3.47-1.11,3.9,3.9,0,0,1-1.24-3.07,3.82,3.82,0,0,1,1.27-3A5,5,0,0,1,66.92,204.35Zm0,6.9a4.33,4.33,0,0,0,2.66-.69,2.74,2.74,0,0,0,0-4.08,4.31,4.31,0,0,0-2.66-.7,4.24,4.24,0,0,0-2.64.7,2.45,2.45,0,0,0-.9,2.06,2.41,2.41,0,0,0,.89,2A4.29,4.29,0,0,0,66.92,211.24Z"/><path class="cls-3" d="M69,195.78a2.28,2.28,0,0,1,2,.94,4.41,4.41,0,0,1,.69,2.64,5.72,5.72,0,0,1-.57,2.81H69.8a6.77,6.77,0,0,0,.52-1.4,5.81,5.81,0,0,0,.19-1.44,3.26,3.26,0,0,0-.34-1.65,1.19,1.19,0,0,0-2-.12,7.2,7.2,0,0,0-.89,1.79,9.64,9.64,0,0,1-.83,1.8,2.45,2.45,0,0,1-.8.79,2.1,2.1,0,0,1-1.07.26,2,2,0,0,1-1.76-.9,4.18,4.18,0,0,1-.64-2.47,7.19,7.19,0,0,1,.6-2.86l1.12.49a6.53,6.53,0,0,0-.56,2.47,2.83,2.83,0,0,0,.31,1.47,1,1,0,0,0,.85.5,1,1,0,0,0,.62-.19,1.84,1.84,0,0,0,.49-.6,13.37,13.37,0,0,0,.67-1.59,5.92,5.92,0,0,1,1.19-2.18A2.1,2.1,0,0,1,69,195.78Z"/><path class="cls-3" d="M70.26,182.35v.07a3.22,3.22,0,0,1,1.39,2.84A3.35,3.35,0,0,1,70.43,188,5.39,5.39,0,0,1,67,189a5.48,5.48,0,0,1-3.49-1,3.33,3.33,0,0,1-1.25-2.76,3.29,3.29,0,0,1,1.34-2.82v-.11l-.66.06-.64,0h-3.7v-1.37H71.48v1.12Zm.23,2.74a2.49,2.49,0,0,0-.77-2,3.89,3.89,0,0,0-2.48-.63H67a4.58,4.58,0,0,0-2.76.64,2.43,2.43,0,0,0-.83,2,2.09,2.09,0,0,0,.94,1.85,4.7,4.7,0,0,0,2.66.64A4.51,4.51,0,0,0,69.6,187,2.15,2.15,0,0,0,70.49,185.1Z"/><path class="cls-3" d="M71.65,174a4.15,4.15,0,0,1-1.23,3.17A4.77,4.77,0,0,1,67,178.33a5.29,5.29,0,0,1-3.49-1.08,3.57,3.57,0,0,1-1.29-2.9,3.4,3.4,0,0,1,1.13-2.69,4.32,4.32,0,0,1,3-1h.87v6.24a3.62,3.62,0,0,0,2.43-.81,2.78,2.78,0,0,0,.83-2.15,7.26,7.26,0,0,0-.61-2.89h1.23a7.26,7.26,0,0,1,.45,1.38A7.72,7.72,0,0,1,71.65,174Zm-8.28.37a2.23,2.23,0,0,0,.71,1.74,3.3,3.3,0,0,0,2,.76v-4.73a3,3,0,0,0-2,.58A2,2,0,0,0,63.37,174.38Z"/><path class="cls-3" d="M59.92,163.42a.92.92,0,0,1-.69-.23.85.85,0,0,1,0-1.15.9.9,0,0,1,.69-.24.91.91,0,0,1,.69.24.8.8,0,0,1,.23.57.79.79,0,0,1-.23.58A.93.93,0,0,1,59.92,163.42Zm11.56-1.49v1.37h-9.1v-1.37Z"/><path class="cls-3" d="M71.48,152.51H65.6a2.38,2.38,0,0,0-1.66.5,2,2,0,0,0-.55,1.58,2.59,2.59,0,0,0,.77,2.08,3.91,3.91,0,0,0,2.55.66h4.77v1.37h-9.1v-1.12l1.25-.22v-.07a2.8,2.8,0,0,1-1-1.18,3.82,3.82,0,0,1-.37-1.69A3.43,3.43,0,0,1,63,152a3.38,3.38,0,0,1,2.54-.83h5.94Z"/><path class="cls-3" d="M70.51,145.08a4.44,4.44,0,0,0-.05-.7,4.49,4.49,0,0,0-.11-.54H71.4a2.51,2.51,0,0,1,.18.66,4.92,4.92,0,0,1,.07.78q0,2.63-2.78,2.63H63.45v1.3h-.66l-.57-1.3-1.94-.58v-.79h2.11V143.9h1.07v2.63h5.35a1.85,1.85,0,0,0,1.26-.39A1.35,1.35,0,0,0,70.51,145.08Z"/><path class="cls-3" d="M71.65,137.88A4.15,4.15,0,0,1,70.42,141,4.77,4.77,0,0,1,67,142.21a5.29,5.29,0,0,1-3.49-1.08,3.57,3.57,0,0,1-1.29-2.9,3.4,3.4,0,0,1,1.13-2.69,4.32,4.32,0,0,1,3-1h.87v6.24a3.62,3.62,0,0,0,2.43-.81,2.78,2.78,0,0,0,.83-2.15,7.26,7.26,0,0,0-.61-2.89h1.23a7.26,7.26,0,0,1,.45,1.38A7.72,7.72,0,0,1,71.65,137.88Zm-8.28.37a2.23,2.23,0,0,0,.71,1.74,3.3,3.3,0,0,0,2,.76V136a3,3,0,0,0-2,.58A2,2,0,0,0,63.37,138.25Z"/><path class="cls-3" d="M62.22,127.76a5.34,5.34,0,0,1,.1-1.08l1.28.19a4.65,4.65,0,0,0-.12,1,2.41,2.41,0,0,0,.9,1.88,3.28,3.28,0,0,0,2.23.78h4.88v1.37h-9.1v-1.13l1.69-.16v-.07a4,4,0,0,1-1.37-1.21A2.72,2.72,0,0,1,62.22,127.76Z"/><path class="cls-3" d="M61,122.23q-.51-.4-1.25-.85a14.22,14.22,0,0,0-1.27-.72V119h.17a15.36,15.36,0,0,1,2.55,2.33v.92Zm10.67-1.39A4.15,4.15,0,0,1,70.42,124,4.77,4.77,0,0,1,67,125.17a5.29,5.29,0,0,1-3.49-1.08,3.57,3.57,0,0,1-1.29-2.9,3.4,3.4,0,0,1,1.13-2.69,4.32,4.32,0,0,1,3-1h.87v6.24a3.62,3.62,0,0,0,2.43-.81,2.78,2.78,0,0,0,.83-2.15,7.26,7.26,0,0,0-.61-2.89h1.23a7.26,7.26,0,0,1,.45,1.38A7.72,7.72,0,0,1,71.65,120.84Zm-8.28.37a2.23,2.23,0,0,0,.71,1.74,3.3,3.3,0,0,0,2,.76V119a3,3,0,0,0-2,.58A2,2,0,0,0,63.37,121.22Z"/><path class="cls-3" d="M69,109a2.28,2.28,0,0,1,2,.94,4.41,4.41,0,0,1,.69,2.64,5.72,5.72,0,0,1-.57,2.81H69.8a6.77,6.77,0,0,0,.52-1.4,5.81,5.81,0,0,0,.19-1.44,3.26,3.26,0,0,0-.34-1.65,1.19,1.19,0,0,0-2-.12,7.2,7.2,0,0,0-.89,1.79,9.64,9.64,0,0,1-.83,1.8,2.45,2.45,0,0,1-.8.79,2.1,2.1,0,0,1-1.07.26,2,2,0,0,1-1.76-.9,4.18,4.18,0,0,1-.64-2.47,7.19,7.19,0,0,1,.6-2.86l1.12.49a6.53,6.53,0,0,0-.56,2.47,2.83,2.83,0,0,0,.31,1.47,1,1,0,0,0,.85.5,1,1,0,0,0,.62-.19,1.84,1.84,0,0,0,.49-.6,13.37,13.37,0,0,0,.67-1.59,5.92,5.92,0,0,1,1.19-2.18A2.1,2.1,0,0,1,69,109Z"/><path class="cls-3" d="M26.86,235.75H18.59V221.38h8.27v2.5H21.64V227H26.5v2.5H21.64v3.7h5.23Z"/><path class="cls-3" d="M28.79,258H24.92l-6.25-10.87h-.09q.19,2.88.19,4.11V258H16V243.62h3.84l6.24,10.76h.07q-.15-2.8-.15-4v-6.8h2.74Z"/><path class="cls-3" d="M23.94,280.22h-3V268.39H17v-2.54H27.84v2.54h-3.9Z"/><path class="cls-3" d="M20.63,296.95v5.51h-3V288.09h4.19a7.16,7.16,0,0,1,4.33,1.07,4.25,4.25,0,0,1,.71,5.49,4.61,4.61,0,0,1-2,1.55q3.24,4.84,4.23,6.26H25.68l-3.43-5.51Zm0-2.48h1a3.76,3.76,0,0,0,2.13-.48,1.72,1.72,0,0,0,.69-1.51,1.57,1.57,0,0,0-.7-1.45,4.26,4.26,0,0,0-2.18-.43h-.92Z"/><path class="cls-3" d="M26.08,324.7l-1-3.42H19.8l-1,3.42H15.47l5.07-14.43h3.72l5.09,14.43Zm-1.77-6q-1.44-4.65-1.63-5.26t-.26-1q-.32,1.26-1.86,6.22Z"/><path class="cls-3" d="M28.7,339.62a7.08,7.08,0,0,1-2,5.43,8.24,8.24,0,0,1-5.83,1.89H16.78V332.57h4.51a7.6,7.6,0,0,1,5.46,1.86A6.83,6.83,0,0,1,28.7,339.62Zm-3.16.08q0-4.63-4.09-4.63H19.82v9.35h1.31Q25.53,344.42,25.53,339.69Z"/><path class="cls-3" d="M26.08,369.17l-1-3.42H19.8l-1,3.42H15.47l5.07-14.43h3.72l5.09,14.43Zm-1.77-6q-1.44-4.65-1.63-5.26t-.26-1q-.32,1.26-1.86,6.22Z"/><path class="cls-3" d="M27.16,387.42a3.71,3.71,0,0,1-1.4,3.07,6.08,6.08,0,0,1-3.9,1.12,9.15,9.15,0,0,1-4.07-.87v-2.83a16.72,16.72,0,0,0,2.46.91,7.29,7.29,0,0,0,1.84.27,2.62,2.62,0,0,0,1.54-.38,1.31,1.31,0,0,0,.54-1.14,1.26,1.26,0,0,0-.24-.75,2.65,2.65,0,0,0-.69-.63,17.92,17.92,0,0,0-1.86-1,8.88,8.88,0,0,1-2-1.19,4.47,4.47,0,0,1-1.05-1.33,3.78,3.78,0,0,1-.39-1.77,3.72,3.72,0,0,1,1.29-3,5.37,5.37,0,0,1,3.57-1.09,8.4,8.4,0,0,1,2.14.27,14.63,14.63,0,0,1,2.13.75l-1,2.37a14.33,14.33,0,0,0-1.9-.66,6.14,6.14,0,0,0-1.48-.19,2,2,0,0,0-1.33.4,1.33,1.33,0,0,0-.46,1.05,1.3,1.3,0,0,0,.19.7,2,2,0,0,0,.59.58,18,18,0,0,0,1.93,1A7.69,7.69,0,0,1,26.42,385,3.77,3.77,0,0,1,27.16,387.42Z"/></svg>