<svg id="Capa_1" data-name="Capa 1" xmlns="http://www.w3.org/2000/svg" viewBox="0 0 137 600"><defs><style>.cls-1{fill:#3c6ec7;}.cls-2{fill:#05255e;}.cls-3{fill:#fff;}</style></defs><title>Salidas</title><rect class="cls-1" width="43" height="600"/><polygon class="cls-2" points="92.69 0 43 0 43 600 92.69 600 137 300 92.69 0"/><path class="cls-3" d="M66.25,487a3,3,0,0,1,2.5,1.16,5,5,0,0,1,.9,3.14,7.82,7.82,0,0,1-.56,3.3H67.73a8.62,8.62,0,0,0,.5-1.62,8.49,8.49,0,0,0,.18-1.73,3.48,3.48,0,0,0-.54-2.11,1.76,1.76,0,0,0-1.49-.71,1.92,1.92,0,0,0-1,.25,2.35,2.35,0,0,0-.74.84,11.71,11.71,0,0,0-.77,1.8,5.73,5.73,0,0,1-1.44,2.41,3.18,3.18,0,0,1-2.17.72,2.7,2.7,0,0,1-2.23-1,4.35,4.35,0,0,1-.83-2.78,8.14,8.14,0,0,1,.66-3.31l1.23.44a7.45,7.45,0,0,0-.63,2.91,2.8,2.8,0,0,0,.48,1.74,1.59,1.59,0,0,0,1.34.63,2.05,2.05,0,0,0,1-.23A2.19,2.19,0,0,0,62,492a9.72,9.72,0,0,0,.74-1.68,6.65,6.65,0,0,1,1.46-2.61A2.88,2.88,0,0,1,66.25,487Z"/><path class="cls-3" d="M64.92,476.6a5,5,0,0,1,3.47,1.12,3.92,3.92,0,0,1,1.25,3.08,4.06,4.06,0,0,1-.57,2.16,3.78,3.78,0,0,1-1.64,1.45,5.75,5.75,0,0,1-2.51.51,5,5,0,0,1-3.47-1.11,3.9,3.9,0,0,1-1.24-3.07,3.82,3.82,0,0,1,1.27-3A5,5,0,0,1,64.92,476.6Zm0,6.9a4.33,4.33,0,0,0,2.66-.69,2.74,2.74,0,0,0,0-4.08,4.31,4.31,0,0,0-2.66-.7,4.24,4.24,0,0,0-2.64.7,2.45,2.45,0,0,0-.9,2.06,2.41,2.41,0,0,0,.89,2A4.29,4.29,0,0,0,64.92,483.49Z"/><path class="cls-3" d="M67,468a2.28,2.28,0,0,1,2,.94,4.41,4.41,0,0,1,.69,2.64,5.72,5.72,0,0,1-.57,2.81H67.8a6.78,6.78,0,0,0,.52-1.4,5.82,5.82,0,0,0,.19-1.44,3.26,3.26,0,0,0-.34-1.65,1.19,1.19,0,0,0-2-.12,7.17,7.17,0,0,0-.89,1.79,9.68,9.68,0,0,1-.83,1.8,2.46,2.46,0,0,1-.8.79,2.09,2.09,0,0,1-1.07.26,2,2,0,0,1-1.76-.9,4.18,4.18,0,0,1-.64-2.47,7.2,7.2,0,0,1,.6-2.86l1.12.49a6.53,6.53,0,0,0-.56,2.47,2.83,2.83,0,0,0,.31,1.47,1,1,0,0,0,.85.5,1,1,0,0,0,.62-.19,1.84,1.84,0,0,0,.49-.6,13.39,13.39,0,0,0,.67-1.59,5.92,5.92,0,0,1,1.19-2.18A2.1,2.1,0,0,1,67,468Z"/><path class="cls-3" d="M68.51,462.56a4.89,4.89,0,0,0-.17-1.24H69.4a2.51,2.51,0,0,1,.18.66,4.93,4.93,0,0,1,.07.78q0,2.63-2.78,2.63H61.45v1.3h-.66l-.57-1.3-1.94-.58V464h2.11v-2.63h1.07V464h5.35a1.84,1.84,0,0,0,1.26-.39A1.34,1.34,0,0,0,68.51,462.56Z"/><path class="cls-3" d="M69.65,455.36a4.15,4.15,0,0,1-1.23,3.17A4.77,4.77,0,0,1,65,459.69a5.3,5.3,0,0,1-3.49-1.08,3.57,3.57,0,0,1-1.29-2.9A3.41,3.41,0,0,1,61.34,453a4.32,4.32,0,0,1,3-1h.87v6.24a3.61,3.61,0,0,0,2.43-.81,2.78,2.78,0,0,0,.83-2.15,7.25,7.25,0,0,0-.61-2.89h1.23a7.24,7.24,0,0,1,.45,1.38A7.73,7.73,0,0,1,69.65,455.36Zm-8.28.37a2.23,2.23,0,0,0,.71,1.74,3.3,3.3,0,0,0,2,.76v-4.73a3,3,0,0,0-2,.58A2,2,0,0,0,61.37,455.74Z"/><path class="cls-3" d="M69.48,443.18H63.6a2.38,2.38,0,0,0-1.66.5,2,2,0,0,0-.55,1.58,2.6,2.6,0,0,0,.77,2.08,3.91,3.91,0,0,0,2.55.66h4.77v1.37h-9.1v-1.11l1.25-.22V448a2.81,2.81,0,0,1-1-1.18,3.82,3.82,0,0,1-.37-1.69,3.43,3.43,0,0,1,.79-2.46,3.38,3.38,0,0,1,2.54-.83h5.94Z"/><path class="cls-3" d="M57.92,438.79a.92.92,0,0,1-.69-.23.85.85,0,0,1,0-1.15.9.9,0,0,1,.69-.24.92.92,0,0,1,.69.24.8.8,0,0,1,.23.57.79.79,0,0,1-.23.58A.93.93,0,0,1,57.92,438.79Zm11.56-1.49v1.37h-9.1V437.3Z"/><path class="cls-3" d="M60.23,429.86a3.36,3.36,0,0,1,1.22-2.77,5.4,5.4,0,0,1,3.47-1,5.43,5.43,0,0,1,3.48,1,3.34,3.34,0,0,1,1.24,2.76,3.9,3.9,0,0,1-.33,1.62,3,3,0,0,1-1,1.23v.1l1.17.29v1H56.56V432.7H59.7q1.05,0,1.89.07v-.07A3.25,3.25,0,0,1,60.23,429.86Zm1.15.2a2.39,2.39,0,0,0,.81,2,4.58,4.58,0,0,0,2.73.62,4.57,4.57,0,0,0,2.74-.64,2.41,2.41,0,0,0,.83-2,2.11,2.11,0,0,0-.93-1.88,4.78,4.78,0,0,0-2.66-.62,4.59,4.59,0,0,0-2.65.62A2.19,2.19,0,0,0,61.39,430.06Z"/><path class="cls-3" d="M57.92,423.5a.92.92,0,0,1-.69-.23.85.85,0,0,1,0-1.15.9.9,0,0,1,.69-.24.92.92,0,0,1,.69.24.8.8,0,0,1,.23.57.79.79,0,0,1-.23.58A.93.93,0,0,1,57.92,423.5ZM69.48,422v1.37h-9.1V422Z"/><path class="cls-3" d="M69.48,417.42v1.37H56.56v-1.37Z"/><path class="cls-3" d="M57.92,414.3a.92.92,0,0,1-.69-.23.85.85,0,0,1,0-1.15.9.9,0,0,1,.69-.24.92.92,0,0,1,.69.24.8.8,0,0,1,.23.57.79.79,0,0,1-.23.58A.93.93,0,0,1,57.92,414.3Zm11.56-1.49v1.37h-9.1v-1.37Z"/><path class="cls-3" d="M68.26,403.42v.07a3.22,3.22,0,0,1,1.39,2.84,3.35,3.35,0,0,1-1.22,2.76,5.39,5.39,0,0,1-3.47,1,5.48,5.48,0,0,1-3.49-1,3.33,3.33,0,0,1-1.25-2.76,3.29,3.29,0,0,1,1.34-2.83v-.11l-.66.06-.64,0h-3.7v-1.37H69.48v1.12Zm.23,2.74a2.49,2.49,0,0,0-.77-2,3.89,3.89,0,0,0-2.48-.63H65a4.58,4.58,0,0,0-2.76.64,2.42,2.42,0,0,0-.83,2,2.1,2.1,0,0,0,.94,1.85,4.7,4.7,0,0,0,2.66.64A4.5,4.5,0,0,0,67.6,408,2.15,2.15,0,0,0,68.49,406.17Z"/><path class="cls-3" d="M69.48,393.33l-1.29.27v.07A3.81,3.81,0,0,1,69.34,395a4.1,4.1,0,0,1,.3,1.68,3,3,0,0,1-.7,2.11,2.55,2.55,0,0,1-2,.76q-2.76,0-2.89-4.39l0-1.54h-.56a2.32,2.32,0,0,0-1.58.46,1.88,1.88,0,0,0-.51,1.47,6,6,0,0,0,.7,2.56l-1.05.42a6.4,6.4,0,0,1-.57-1.47,6.32,6.32,0,0,1-.21-1.6,3.44,3.44,0,0,1,.72-2.4,3,3,0,0,1,2.32-.78h6.21Zm-1,3.1a2.78,2.78,0,0,0-.71-2,2.62,2.62,0,0,0-2-.73H65l.06,1.37a5,5,0,0,0,.51,2.36,1.54,1.54,0,0,0,1.41.72,1.42,1.42,0,0,0,1.14-.45A1.86,1.86,0,0,0,68.51,396.43Z"/><path class="cls-3" d="M68.26,383v.07a3.22,3.22,0,0,1,1.39,2.84,3.35,3.35,0,0,1-1.22,2.76,5.39,5.39,0,0,1-3.47,1,5.48,5.48,0,0,1-3.49-1,3.33,3.33,0,0,1-1.25-2.76,3.29,3.29,0,0,1,1.34-2.83V383l-.66.06-.64,0h-3.7v-1.37H69.48v1.12Zm.23,2.74a2.49,2.49,0,0,0-.77-2,3.89,3.89,0,0,0-2.48-.63H65a4.58,4.58,0,0,0-2.76.64,2.42,2.42,0,0,0-.83,2,2.1,2.1,0,0,0,.94,1.85,4.7,4.7,0,0,0,2.66.64,4.5,4.5,0,0,0,2.63-.64A2.15,2.15,0,0,0,68.49,385.75Z"/><path class="cls-3" d="M57.92,373.88a.92.92,0,0,1-.69-.23.85.85,0,0,1,0-1.15.9.9,0,0,1,.69-.24.92.92,0,0,1,.69.24.8.8,0,0,1,.23.57.79.79,0,0,1-.23.58A.93.93,0,0,1,57.92,373.88Zm11.56-1.49v1.37h-9.1V372.4Z"/><path class="cls-3" d="M69.48,363H63.6a2.38,2.38,0,0,0-1.66.5,2,2,0,0,0-.55,1.58,2.6,2.6,0,0,0,.77,2.08,3.91,3.91,0,0,0,2.55.66h4.77v1.37h-9.1v-1.11l1.25-.22v-.07a2.81,2.81,0,0,1-1-1.18,3.82,3.82,0,0,1-.37-1.69,3.43,3.43,0,0,1,.79-2.46,3.38,3.38,0,0,1,2.54-.83h5.94Z"/><path class="cls-3" d="M67,352.63a2.28,2.28,0,0,1,2,.94,4.41,4.41,0,0,1,.69,2.64,5.72,5.72,0,0,1-.57,2.81H67.8a6.78,6.78,0,0,0,.52-1.4,5.82,5.82,0,0,0,.19-1.44,3.26,3.26,0,0,0-.34-1.65,1.19,1.19,0,0,0-2-.12,7.17,7.17,0,0,0-.89,1.79,9.68,9.68,0,0,1-.83,1.8,2.46,2.46,0,0,1-.8.79,2.09,2.09,0,0,1-1.07.26,2,2,0,0,1-1.76-.9,4.18,4.18,0,0,1-.64-2.47,7.2,7.2,0,0,1,.6-2.86l1.12.49a6.53,6.53,0,0,0-.56,2.47,2.83,2.83,0,0,0,.31,1.47,1,1,0,0,0,.85.5,1,1,0,0,0,.62-.19,1.84,1.84,0,0,0,.49-.6,13.39,13.39,0,0,0,.67-1.59,5.92,5.92,0,0,1,1.19-2.18A2.1,2.1,0,0,1,67,352.63Z"/><path class="cls-3" d="M68.51,347.15a4.89,4.89,0,0,0-.17-1.24H69.4a2.51,2.51,0,0,1,.18.66,4.93,4.93,0,0,1,.07.78q0,2.63-2.78,2.63H61.45v1.3h-.66l-.57-1.3-1.94-.58v-.79h2.11V346h1.07v2.63h5.35a1.84,1.84,0,0,0,1.26-.39A1.34,1.34,0,0,0,68.51,347.15Z"/><path class="cls-3" d="M57.92,343.9a.92.92,0,0,1-.69-.23.85.85,0,0,1,0-1.15.9.9,0,0,1,.69-.24.92.92,0,0,1,.69.24.8.8,0,0,1,.23.57.79.79,0,0,1-.23.58A.93.93,0,0,1,57.92,343.9Zm11.56-1.49v1.37h-9.1v-1.37Z"/><path class="cls-3" d="M68.51,336.26a4.89,4.89,0,0,0-.17-1.24H69.4a2.51,2.51,0,0,1,.18.66,4.93,4.93,0,0,1,.07.78q0,2.63-2.78,2.63H61.45v1.3h-.66l-.57-1.3-1.94-.58v-.79h2.11v-2.63h1.07v2.63h5.35a1.84,1.84,0,0,0,1.26-.39A1.34,1.34,0,0,0,68.51,336.26Z"/><path class="cls-3" d="M60.38,331.6h5.9a2.38,2.38,0,0,0,1.66-.5,2,2,0,0,0,.55-1.58,2.57,2.57,0,0,0-.78-2.08,4,4,0,0,0-2.55-.66H60.38v-1.37h9.1v1.13l-1.22.2v.07a2.74,2.74,0,0,1,1,1.17,3.91,3.91,0,0,1,.36,1.71,3.45,3.45,0,0,1-.79,2.47,3.36,3.36,0,0,1-2.52.82h-6Z"/><path class="cls-3" d="M69.65,318.57a3.86,3.86,0,0,1-1.22,3A5,5,0,0,1,65,322.69a5.17,5.17,0,0,1-3.53-1.09,3.93,3.93,0,0,1-1.25-3.12,6.14,6.14,0,0,1,.14-1.3,4.28,4.28,0,0,1,.33-1l1.17.42a6.44,6.44,0,0,0-.3,1,4.39,4.39,0,0,0-.12,1q0,2.76,3.54,2.76a4.22,4.22,0,0,0,2.57-.67,2.34,2.34,0,0,0,.9-2,6.07,6.07,0,0,0-.49-2.32h1.22A4.93,4.93,0,0,1,69.65,318.57Z"/><path class="cls-3" d="M57.92,313.93a.92.92,0,0,1-.69-.23.85.85,0,0,1,0-1.15.9.9,0,0,1,.69-.24.92.92,0,0,1,.69.24.8.8,0,0,1,.23.57.79.79,0,0,1-.23.58A.93.93,0,0,1,57.92,313.93Zm11.56-1.49v1.37h-9.1v-1.37Z"/><path class="cls-3" d="M64.92,301.4a5,5,0,0,1,3.47,1.12,3.92,3.92,0,0,1,1.25,3.08,4.06,4.06,0,0,1-.57,2.16,3.78,3.78,0,0,1-1.64,1.45,5.75,5.75,0,0,1-2.51.51,5,5,0,0,1-3.47-1.11,3.9,3.9,0,0,1-1.24-3.07,3.82,3.82,0,0,1,1.27-3A5,5,0,0,1,64.92,301.4Zm0,6.9a4.33,4.33,0,0,0,2.66-.69,2.74,2.74,0,0,0,0-4.08,4.31,4.31,0,0,0-2.66-.7,4.24,4.24,0,0,0-2.64.7,2.45,2.45,0,0,0-.9,2.06,2.41,2.41,0,0,0,.89,2A4.29,4.29,0,0,0,64.92,308.29Z"/><path class="cls-3" d="M69.48,292.48H63.6a2.38,2.38,0,0,0-1.66.5,2,2,0,0,0-.55,1.58,2.6,2.6,0,0,0,.77,2.08,3.91,3.91,0,0,0,2.55.66h4.77v1.37h-9.1v-1.11l1.25-.22v-.07a2.81,2.81,0,0,1-1-1.18,3.82,3.82,0,0,1-.37-1.69,3.43,3.43,0,0,1,.79-2.46,3.38,3.38,0,0,1,2.54-.83h5.94Z"/><path class="cls-3" d="M69.48,282.4l-1.29.27v.07a3.81,3.81,0,0,1,1.16,1.35,4.1,4.1,0,0,1,.3,1.68,3,3,0,0,1-.7,2.11,2.55,2.55,0,0,1-2,.76q-2.76,0-2.89-4.39l0-1.54h-.56a2.32,2.32,0,0,0-1.58.46,1.88,1.88,0,0,0-.51,1.47,6,6,0,0,0,.7,2.56l-1.05.42a6.4,6.4,0,0,1-.57-1.47,6.32,6.32,0,0,1-.21-1.6,3.44,3.44,0,0,1,.72-2.4,3,3,0,0,1,2.32-.78h6.21Zm-1,3.1a2.78,2.78,0,0,0-.71-2,2.62,2.62,0,0,0-2-.73H65l.06,1.37a5,5,0,0,0,.51,2.36,1.54,1.54,0,0,0,1.41.72,1.42,1.42,0,0,0,1.14-.45A1.86,1.86,0,0,0,68.51,285.5Z"/><path class="cls-3" d="M69.48,276.87v1.37H56.56v-1.37Z"/><path class="cls-3" d="M60.38,270.36v-1.47l5.19-2a19.69,19.69,0,0,1,2.56-.81V266q-.42-.11-1.45-.45t-6.3-2.24v-1.47l10.36,3.89a5.17,5.17,0,0,1,2.18,1.35,2.86,2.86,0,0,1,.64,1.9,5.49,5.49,0,0,1-.14,1.24h-1.1a4.76,4.76,0,0,0,.1-1,2.09,2.09,0,0,0-1.59-2l-1.29-.5Z"/><path class="cls-3" d="M67,249.53a2.28,2.28,0,0,1,2,.94,4.41,4.41,0,0,1,.69,2.64,5.72,5.72,0,0,1-.57,2.81H67.8a6.78,6.78,0,0,0,.52-1.4,5.82,5.82,0,0,0,.19-1.44,3.26,3.26,0,0,0-.34-1.65,1.19,1.19,0,0,0-2-.12,7.17,7.17,0,0,0-.89,1.79,9.68,9.68,0,0,1-.83,1.8,2.46,2.46,0,0,1-.8.79,2.09,2.09,0,0,1-1.07.26,2,2,0,0,1-1.76-.9,4.18,4.18,0,0,1-.64-2.47,7.2,7.2,0,0,1,.6-2.86l1.12.49a6.53,6.53,0,0,0-.56,2.47,2.83,2.83,0,0,0,.31,1.47,1,1,0,0,0,.85.5,1,1,0,0,0,.62-.19,1.84,1.84,0,0,0,.49-.6,13.39,13.39,0,0,0,.67-1.59,5.92,5.92,0,0,1,1.19-2.18A2.1,2.1,0,0,1,67,249.53Z"/><path class="cls-3" d="M69.48,241.41l-1.29.27v.07a3.81,3.81,0,0,1,1.16,1.35,4.1,4.1,0,0,1,.3,1.68,3,3,0,0,1-.7,2.11,2.55,2.55,0,0,1-2,.76q-2.76,0-2.89-4.39l0-1.54h-.56a2.32,2.32,0,0,0-1.58.46,1.88,1.88,0,0,0-.51,1.47,6,6,0,0,0,.7,2.56l-1.05.42a6.4,6.4,0,0,1-.57-1.47,6.32,6.32,0,0,1-.21-1.6,3.44,3.44,0,0,1,.72-2.4,3,3,0,0,1,2.32-.78h6.21Zm-1,3.1a2.78,2.78,0,0,0-.71-2,2.62,2.62,0,0,0-2-.73H65l.06,1.37a5,5,0,0,0,.51,2.36,1.54,1.54,0,0,0,1.41.72,1.42,1.42,0,0,0,1.14-.45A1.86,1.86,0,0,0,68.51,244.5Z"/><path class="cls-3" d="M68.51,234.32a4.89,4.89,0,0,0-.17-1.24H69.4a2.51,2.51,0,0,1,.18.66,4.93,4.93,0,0,1,.07.78q0,2.63-2.78,2.63H61.45v1.3h-.66l-.57-1.3-1.94-.58v-.79h2.11v-2.63h1.07v2.63h5.35a1.84,1.84,0,0,0,1.26-.39A1.34,1.34,0,0,0,68.51,234.32Z"/><path class="cls-3" d="M57.92,231.07a.92.92,0,0,1-.69-.23.85.85,0,0,1,0-1.15.9.9,0,0,1,.69-.24.92.92,0,0,1,.69.24.8.8,0,0,1,.23.57.79.79,0,0,1-.23.58A.93.93,0,0,1,57.92,231.07Zm11.56-1.49V231h-9.1v-1.37Z"/><path class="cls-3" d="M67,220.51a2.28,2.28,0,0,1,2,.94,4.41,4.41,0,0,1,.69,2.64,5.72,5.72,0,0,1-.57,2.81H67.8a6.78,6.78,0,0,0,.52-1.4,5.82,5.82,0,0,0,.19-1.44,3.26,3.26,0,0,0-.34-1.65,1.19,1.19,0,0,0-2-.12,7.17,7.17,0,0,0-.89,1.79,9.68,9.68,0,0,1-.83,1.8,2.46,2.46,0,0,1-.8.79,2.09,2.09,0,0,1-1.07.26,2,2,0,0,1-1.76-.9,4.18,4.18,0,0,1-.64-2.47,7.2,7.2,0,0,1,.6-2.86l1.12.49a6.53,6.53,0,0,0-.56,2.47,2.83,2.83,0,0,0,.31,1.47,1,1,0,0,0,.85.5,1,1,0,0,0,.62-.19,1.84,1.84,0,0,0,.49-.6,13.39,13.39,0,0,0,.67-1.59,5.92,5.92,0,0,1,1.19-2.18A2.1,2.1,0,0,1,67,220.51Z"/><path class="cls-3" d="M61.45,213.88v2.3h8v1.37h-8v1.62h-.62l-.5-1.62h-.51q-3.35,0-3.35-2.92a6,6,0,0,1,.29-1.68l1.1.36a4.52,4.52,0,0,0-.26,1.35,1.32,1.32,0,0,0,.52,1.15,2.91,2.91,0,0,0,1.66.37h.59v-2.3Z"/><path class="cls-3" d="M69.48,206.34l-1.29.27v.07A3.81,3.81,0,0,1,69.34,208a4.1,4.1,0,0,1,.3,1.68,3,3,0,0,1-.7,2.11,2.55,2.55,0,0,1-2,.76q-2.76,0-2.89-4.39l0-1.54h-.56a2.32,2.32,0,0,0-1.58.46,1.88,1.88,0,0,0-.51,1.47,6,6,0,0,0,.7,2.56l-1.05.42a6.4,6.4,0,0,1-.57-1.47,6.32,6.32,0,0,1-.21-1.6,3.44,3.44,0,0,1,.72-2.4,3,3,0,0,1,2.32-.78h6.21Zm-1,3.1a2.78,2.78,0,0,0-.71-2,2.62,2.62,0,0,0-2-.73H65l.06,1.37a5,5,0,0,0,.51,2.36,1.54,1.54,0,0,0,1.41.72,1.42,1.42,0,0,0,1.14-.45A1.86,1.86,0,0,0,68.51,209.44Z"/><path class="cls-3" d="M69.65,198.56a3.86,3.86,0,0,1-1.22,3A5,5,0,0,1,65,202.68a5.17,5.17,0,0,1-3.53-1.09,3.93,3.93,0,0,1-1.25-3.12,6.14,6.14,0,0,1,.14-1.3,4.28,4.28,0,0,1,.33-1l1.17.42a6.44,6.44,0,0,0-.3,1,4.39,4.39,0,0,0-.12,1q0,2.76,3.54,2.76a4.22,4.22,0,0,0,2.57-.67,2.34,2.34,0,0,0,.9-2,6.07,6.07,0,0,0-.49-2.32h1.22A4.93,4.93,0,0,1,69.65,198.56Z"/><path class="cls-3" d="M69.65,190.19a3.86,3.86,0,0,1-1.22,3A5,5,0,0,1,65,194.31a5.17,5.17,0,0,1-3.53-1.09,3.93,3.93,0,0,1-1.25-3.12,6.14,6.14,0,0,1,.14-1.3,4.28,4.28,0,0,1,.33-1l1.17.42a6.44,6.44,0,0,0-.3,1,4.39,4.39,0,0,0-.12,1q0,2.76,3.54,2.76a4.22,4.22,0,0,0,2.57-.67,2.34,2.34,0,0,0,.9-2A6.07,6.07,0,0,0,68,187.9h1.22A4.93,4.93,0,0,1,69.65,190.19Z"/><path class="cls-3" d="M57.92,185.55a.92.92,0,0,1-.69-.23.85.85,0,0,1,0-1.15.9.9,0,0,1,.69-.24.92.92,0,0,1,.69.24.8.8,0,0,1,.23.57.79.79,0,0,1-.23.58A.93.93,0,0,1,57.92,185.55Zm11.56-1.49v1.37h-9.1v-1.37Z"/><path class="cls-3" d="M59,178.33q-.51-.4-1.25-.86a14.34,14.34,0,0,0-1.27-.72v-1.67h.17a15.36,15.36,0,0,1,2.55,2.33v.92Zm6-5.31a5,5,0,0,1,3.47,1.12,3.92,3.92,0,0,1,1.25,3.08,4.06,4.06,0,0,1-.57,2.16,3.78,3.78,0,0,1-1.64,1.45,5.75,5.75,0,0,1-2.51.51,5,5,0,0,1-3.47-1.11,3.9,3.9,0,0,1-1.24-3.07,3.82,3.82,0,0,1,1.27-3A5,5,0,0,1,64.92,173Zm0,6.9a4.33,4.33,0,0,0,2.66-.69,2.74,2.74,0,0,0,0-4.08,4.31,4.31,0,0,0-2.66-.7,4.24,4.24,0,0,0-2.64.7,2.45,2.45,0,0,0-.9,2.06,2.41,2.41,0,0,0,.89,2A4.29,4.29,0,0,0,64.92,179.91Z"/><path class="cls-3" d="M69.48,164.1H63.6a2.38,2.38,0,0,0-1.66.5,2,2,0,0,0-.55,1.58,2.6,2.6,0,0,0,.77,2.08,3.91,3.91,0,0,0,2.55.66h4.77v1.37h-9.1v-1.11l1.25-.22v-.07a2.81,2.81,0,0,1-1-1.18,3.82,3.82,0,0,1-.37-1.69,3.43,3.43,0,0,1,.79-2.46,3.38,3.38,0,0,1,2.54-.83h5.94Z"/><path class="cls-3" d="M68.26,148.71v.07a3.22,3.22,0,0,1,1.39,2.84,3.35,3.35,0,0,1-1.22,2.76,5.39,5.39,0,0,1-3.47,1,5.48,5.48,0,0,1-3.49-1,3.33,3.33,0,0,1-1.25-2.76,3.29,3.29,0,0,1,1.34-2.82v-.11l-.66.06-.64,0h-3.7v-1.37H69.48v1.12Zm.23,2.74a2.49,2.49,0,0,0-.77-2,3.89,3.89,0,0,0-2.48-.63H65a4.58,4.58,0,0,0-2.76.64,2.43,2.43,0,0,0-.83,2,2.09,2.09,0,0,0,.94,1.85A4.7,4.7,0,0,0,65,154a4.51,4.51,0,0,0,2.63-.64A2.15,2.15,0,0,0,68.49,151.45Z"/><path class="cls-3" d="M69.65,140.36a4.15,4.15,0,0,1-1.23,3.17A4.77,4.77,0,0,1,65,144.69a5.29,5.29,0,0,1-3.49-1.08,3.57,3.57,0,0,1-1.29-2.9A3.41,3.41,0,0,1,61.34,138a4.32,4.32,0,0,1,3-1h.87v6.24a3.62,3.62,0,0,0,2.43-.81,2.78,2.78,0,0,0,.83-2.15,7.26,7.26,0,0,0-.61-2.89h1.23a7.26,7.26,0,0,1,.45,1.38A7.72,7.72,0,0,1,69.65,140.36Zm-8.28.37a2.23,2.23,0,0,0,.71,1.74,3.3,3.3,0,0,0,2,.76V138.5a3,3,0,0,0-2,.58A2,2,0,0,0,61.37,140.73Z"/><path class="cls-3" d="M69.48,128.29v1.37H56.56v-1.37Z"/><path class="cls-3" d="M69.48,119.49l-1.29.27v.07a3.82,3.82,0,0,1,1.16,1.35,4.1,4.1,0,0,1,.3,1.68,3,3,0,0,1-.7,2.11,2.55,2.55,0,0,1-2,.76q-2.76,0-2.89-4.39l0-1.54h-.56a2.32,2.32,0,0,0-1.58.46,1.88,1.88,0,0,0-.51,1.47,6,6,0,0,0,.7,2.56l-1.05.42a6.4,6.4,0,0,1-.57-1.47,6.33,6.33,0,0,1-.21-1.6,3.44,3.44,0,0,1,.72-2.4,3,3,0,0,1,2.32-.78h6.21Zm-1,3.1a2.78,2.78,0,0,0-.71-2,2.62,2.62,0,0,0-2-.73H65l.06,1.37a5,5,0,0,0,.51,2.36,1.54,1.54,0,0,0,1.41.72,1.42,1.42,0,0,0,1.14-.45A1.86,1.86,0,0,0,68.51,122.59Z"/><path class="cls-3" d="M67,109.49a2.28,2.28,0,0,1,2,.94,4.41,4.41,0,0,1,.69,2.64,5.72,5.72,0,0,1-.57,2.81H67.8a6.77,6.77,0,0,0,.52-1.4,5.81,5.81,0,0,0,.19-1.44,3.26,3.26,0,0,0-.34-1.65,1.19,1.19,0,0,0-2-.12,7.2,7.2,0,0,0-.89,1.79,9.64,9.64,0,0,1-.83,1.8,2.45,2.45,0,0,1-.8.79,2.1,2.1,0,0,1-1.07.26,2,2,0,0,1-1.76-.9,4.18,4.18,0,0,1-.64-2.47,7.2,7.2,0,0,1,.6-2.86l1.12.49a6.53,6.53,0,0,0-.56,2.47,2.83,2.83,0,0,0,.31,1.47,1,1,0,0,0,.85.5,1,1,0,0,0,.62-.19,1.84,1.84,0,0,0,.49-.6,13.37,13.37,0,0,0,.67-1.59,5.92,5.92,0,0,1,1.19-2.18A2.1,2.1,0,0,1,67,109.49Z"/><path class="cls-3" d="M90.48,505.8H84.6a2.38,2.38,0,0,0-1.66.5,2,2,0,0,0-.55,1.58,2.6,2.6,0,0,0,.77,2.08,3.91,3.91,0,0,0,2.55.66h4.77V512h-9.1v-1.11l1.25-.22v-.07a2.81,2.81,0,0,1-1-1.18,3.82,3.82,0,0,1-.37-1.69,3.43,3.43,0,0,1,.79-2.46,3.38,3.38,0,0,1,2.54-.83h5.94Z"/><path class="cls-3" d="M90.65,497.47a4.15,4.15,0,0,1-1.23,3.17A4.77,4.77,0,0,1,86,501.8a5.3,5.3,0,0,1-3.49-1.08,3.57,3.57,0,0,1-1.29-2.9,3.41,3.41,0,0,1,1.13-2.69,4.32,4.32,0,0,1,3-1h.87v6.24a3.61,3.61,0,0,0,2.43-.81,2.78,2.78,0,0,0,.83-2.15,7.25,7.25,0,0,0-.61-2.89h1.23a7.24,7.24,0,0,1,.45,1.38A7.73,7.73,0,0,1,90.65,497.47Zm-8.28.37a2.23,2.23,0,0,0,.71,1.74,3.3,3.3,0,0,0,2,.76v-4.73a3,3,0,0,0-2,.58A2,2,0,0,0,82.37,497.84Z"/><path class="cls-3" d="M90.65,487.87a3.86,3.86,0,0,1-1.22,3A5,5,0,0,1,86,492a5.17,5.17,0,0,1-3.53-1.09,3.93,3.93,0,0,1-1.25-3.12,6.14,6.14,0,0,1,.14-1.3,4.28,4.28,0,0,1,.33-1l1.17.42a6.44,6.44,0,0,0-.3,1,4.39,4.39,0,0,0-.12,1q0,2.76,3.54,2.76a4.22,4.22,0,0,0,2.57-.67,2.34,2.34,0,0,0,.9-2,6.07,6.07,0,0,0-.49-2.32h1.22A4.93,4.93,0,0,1,90.65,487.87Z"/><path class="cls-3" d="M90.65,479.29a4.15,4.15,0,0,1-1.23,3.17A4.77,4.77,0,0,1,86,483.61a5.3,5.3,0,0,1-3.49-1.08,3.57,3.57,0,0,1-1.29-2.9,3.41,3.41,0,0,1,1.13-2.69,4.32,4.32,0,0,1,3-1h.87v6.24a3.61,3.61,0,0,0,2.43-.81,2.78,2.78,0,0,0,.83-2.15,7.25,7.25,0,0,0-.61-2.89h1.23a7.24,7.24,0,0,1,.45,1.38A7.73,7.73,0,0,1,90.65,479.29Zm-8.28.37a2.23,2.23,0,0,0,.71,1.74,3.3,3.3,0,0,0,2,.76v-4.73a3,3,0,0,0-2,.58A2,2,0,0,0,82.37,479.66Z"/><path class="cls-3" d="M88,467.46a2.28,2.28,0,0,1,2,.94,4.41,4.41,0,0,1,.69,2.64,5.72,5.72,0,0,1-.57,2.81H88.8a6.78,6.78,0,0,0,.52-1.4,5.82,5.82,0,0,0,.19-1.44,3.26,3.26,0,0,0-.34-1.65,1.19,1.19,0,0,0-2-.12,7.17,7.17,0,0,0-.89,1.79,9.68,9.68,0,0,1-.83,1.8,2.46,2.46,0,0,1-.8.79,2.09,2.09,0,0,1-1.07.26,2,2,0,0,1-1.76-.9,4.18,4.18,0,0,1-.64-2.47,7.2,7.2,0,0,1,.6-2.86l1.12.49a6.53,6.53,0,0,0-.56,2.47,2.83,2.83,0,0,0,.31,1.47,1,1,0,0,0,.85.5,1,1,0,0,0,.62-.19,1.84,1.84,0,0,0,.49-.6,13.39,13.39,0,0,0,.67-1.59A5.92,5.92,0,0,1,86.5,468,2.1,2.1,0,0,1,88,467.46Z"/><path class="cls-3" d="M78.92,465a.92.92,0,0,1-.69-.23.85.85,0,0,1,0-1.15.9.9,0,0,1,.69-.24.92.92,0,0,1,.69.24.8.8,0,0,1,.23.57.79.79,0,0,1-.23.58A.93.93,0,0,1,78.92,465Zm11.56-1.49v1.37h-9.1v-1.37Z"/><path class="cls-3" d="M89.26,454.15v.07a3.22,3.22,0,0,1,1.39,2.84,3.35,3.35,0,0,1-1.22,2.76,5.39,5.39,0,0,1-3.47,1,5.48,5.48,0,0,1-3.49-1,3.33,3.33,0,0,1-1.25-2.76,3.29,3.29,0,0,1,1.34-2.83v-.11l-.66.06-.64,0h-3.7v-1.37H90.48V454Zm.23,2.74a2.49,2.49,0,0,0-.77-2,3.89,3.89,0,0,0-2.48-.63H86a4.58,4.58,0,0,0-2.76.64,2.42,2.42,0,0,0-.83,2,2.1,2.1,0,0,0,.94,1.85,4.7,4.7,0,0,0,2.66.64,4.5,4.5,0,0,0,2.63-.64A2.15,2.15,0,0,0,89.49,456.89Z"/><path class="cls-3" d="M90.48,444.05l-1.29.27v.07a3.81,3.81,0,0,1,1.16,1.35,4.1,4.1,0,0,1,.3,1.68,3,3,0,0,1-.7,2.11,2.55,2.55,0,0,1-2,.76q-2.76,0-2.89-4.39l0-1.54h-.56a2.32,2.32,0,0,0-1.58.46,1.88,1.88,0,0,0-.51,1.47,6,6,0,0,0,.7,2.56l-1.05.42a6.4,6.4,0,0,1-.57-1.47,6.32,6.32,0,0,1-.21-1.6,3.44,3.44,0,0,1,.72-2.4,3,3,0,0,1,2.32-.78h6.21Zm-1,3.1a2.78,2.78,0,0,0-.71-2,2.62,2.62,0,0,0-2-.73H86l.06,1.37a5,5,0,0,0,.51,2.36,1.54,1.54,0,0,0,1.41.72,1.42,1.42,0,0,0,1.14-.45A1.86,1.86,0,0,0,89.51,447.15Z"/><path class="cls-3" d="M89.26,433.73v.07a3.22,3.22,0,0,1,1.39,2.84,3.35,3.35,0,0,1-1.22,2.76,5.39,5.39,0,0,1-3.47,1,5.48,5.48,0,0,1-3.49-1,3.33,3.33,0,0,1-1.25-2.76,3.29,3.29,0,0,1,1.34-2.83v-.11l-.66.06-.64,0h-3.7v-1.37H90.48v1.12Zm.23,2.74a2.49,2.49,0,0,0-.77-2,3.89,3.89,0,0,0-2.48-.63H86a4.58,4.58,0,0,0-2.76.64,2.42,2.42,0,0,0-.83,2,2.1,2.1,0,0,0,.94,1.85A4.7,4.7,0,0,0,86,439a4.5,4.5,0,0,0,2.63-.64A2.15,2.15,0,0,0,89.49,436.47Z"/><path class="cls-3" d="M90.65,425.38a4.15,4.15,0,0,1-1.23,3.17A4.77,4.77,0,0,1,86,429.71a5.3,5.3,0,0,1-3.49-1.08,3.57,3.57,0,0,1-1.29-2.9A3.41,3.41,0,0,1,82.34,423a4.32,4.32,0,0,1,3-1h.87v6.24a3.61,3.61,0,0,0,2.43-.81,2.78,2.78,0,0,0,.83-2.15,7.25,7.25,0,0,0-.61-2.89h1.23a7.24,7.24,0,0,1,.45,1.38A7.73,7.73,0,0,1,90.65,425.38Zm-8.28.37a2.23,2.23,0,0,0,.71,1.74,3.3,3.3,0,0,0,2,.76v-4.73a3,3,0,0,0-2,.58A2,2,0,0,0,82.37,425.75Z"/><path class="cls-3" d="M88,413.55a2.28,2.28,0,0,1,2,.94,4.41,4.41,0,0,1,.69,2.64,5.72,5.72,0,0,1-.57,2.81H88.8a6.78,6.78,0,0,0,.52-1.4,5.82,5.82,0,0,0,.19-1.44,3.26,3.26,0,0,0-.34-1.65,1.19,1.19,0,0,0-2-.12,7.17,7.17,0,0,0-.89,1.79,9.68,9.68,0,0,1-.83,1.8,2.46,2.46,0,0,1-.8.79,2.09,2.09,0,0,1-1.07.26,2,2,0,0,1-1.76-.9,4.18,4.18,0,0,1-.64-2.47,7.2,7.2,0,0,1,.6-2.86l1.12.49a6.53,6.53,0,0,0-.56,2.47,2.83,2.83,0,0,0,.31,1.47,1,1,0,0,0,.85.5,1,1,0,0,0,.62-.19,1.84,1.84,0,0,0,.49-.6,13.39,13.39,0,0,0,.67-1.59,5.92,5.92,0,0,1,1.19-2.18A2.1,2.1,0,0,1,88,413.55Z"/><path class="cls-3" d="M81.38,407.72v-1.47l5.19-2a19.69,19.69,0,0,1,2.56-.81v-.07q-.42-.11-1.45-.45t-6.3-2.24v-1.47l10.36,3.89a5.17,5.17,0,0,1,2.18,1.35,2.86,2.86,0,0,1,.64,1.9,5.49,5.49,0,0,1-.14,1.24h-1.1a4.76,4.76,0,0,0,.1-1,2.09,2.09,0,0,0-1.59-2l-1.29-.5Z"/><path class="cls-3" d="M90.65,388.9a4.15,4.15,0,0,1-1.23,3.17A4.77,4.77,0,0,1,86,393.23a5.3,5.3,0,0,1-3.49-1.08,3.57,3.57,0,0,1-1.29-2.9,3.41,3.41,0,0,1,1.13-2.69,4.32,4.32,0,0,1,3-1h.87v6.24a3.61,3.61,0,0,0,2.43-.81,2.78,2.78,0,0,0,.83-2.15,7.25,7.25,0,0,0-.61-2.89h1.23a7.24,7.24,0,0,1,.45,1.38A7.73,7.73,0,0,1,90.65,388.9Zm-8.28.37a2.23,2.23,0,0,0,.71,1.74,3.3,3.3,0,0,0,2,.76V387a3,3,0,0,0-2,.58A2,2,0,0,0,82.37,389.27Z"/><path class="cls-3" d="M85.82,380.74l-4.44,3.15v-1.56l3.49-2.39-3.49-2.38V376l4.44,3.15,4.66-3.31v1.55l-3.69,2.54,3.69,2.56V384Z"/><path class="cls-3" d="M90.65,369.52a3.9,3.9,0,0,1-.33,1.62,3,3,0,0,1-1,1.23v.1a12.2,12.2,0,0,1,1.51-.1h3.74v1.37H81.38v-1.11l1.25-.19v-.07a3.18,3.18,0,0,1-1.08-1.23,3.73,3.73,0,0,1-.33-1.61,3.34,3.34,0,0,1,1.24-2.78,6.61,6.61,0,0,1,7,0A3.34,3.34,0,0,1,90.65,369.52Zm-8.26.2a2.42,2.42,0,0,0,.77,2,4,4,0,0,0,2.46.64h.31a4.57,4.57,0,0,0,2.74-.64,2.41,2.41,0,0,0,.83-2,2.12,2.12,0,0,0-1-1.84,4.55,4.55,0,0,0-2.63-.66,4.38,4.38,0,0,0-2.61.66A2.19,2.19,0,0,0,82.39,369.72Z"/><path class="cls-3" d="M90.65,359.22a4.15,4.15,0,0,1-1.23,3.17A4.77,4.77,0,0,1,86,363.55a5.3,5.3,0,0,1-3.49-1.08,3.57,3.57,0,0,1-1.29-2.9,3.41,3.41,0,0,1,1.13-2.69,4.32,4.32,0,0,1,3-1h.87v6.24a3.61,3.61,0,0,0,2.43-.81,2.78,2.78,0,0,0,.83-2.15,7.25,7.25,0,0,0-.61-2.89h1.23a7.24,7.24,0,0,1,.45,1.38A7.73,7.73,0,0,1,90.65,359.22Zm-8.28.37a2.23,2.23,0,0,0,.71,1.74,3.3,3.3,0,0,0,2,.76v-4.73a3,3,0,0,0-2,.58A2,2,0,0,0,82.37,359.59Z"/><path class="cls-3" d="M90.65,349.62a3.86,3.86,0,0,1-1.22,3A5,5,0,0,1,86,353.74a5.17,5.17,0,0,1-3.53-1.09,3.93,3.93,0,0,1-1.25-3.12,6.14,6.14,0,0,1,.14-1.3,4.28,4.28,0,0,1,.33-1l1.17.42a6.44,6.44,0,0,0-.3,1,4.39,4.39,0,0,0-.12,1q0,2.76,3.54,2.76a4.22,4.22,0,0,0,2.57-.67,2.34,2.34,0,0,0,.9-2,6.07,6.07,0,0,0-.49-2.32h1.22A4.93,4.93,0,0,1,90.65,349.62Z"/><path class="cls-3" d="M89.51,341.93a4.89,4.89,0,0,0-.17-1.24H90.4a2.51,2.51,0,0,1,.18.66,4.93,4.93,0,0,1,.07.78q0,2.63-2.78,2.63H82.45v1.3h-.66l-.57-1.3-1.94-.58v-.79h2.11v-2.63h1.07v2.63h5.35a1.84,1.84,0,0,0,1.26-.39A1.34,1.34,0,0,0,89.51,341.93Z"/><path class="cls-3" d="M90.48,333l-1.29.27v.07a3.81,3.81,0,0,1,1.16,1.35,4.1,4.1,0,0,1,.3,1.68,3,3,0,0,1-.7,2.11,2.55,2.55,0,0,1-2,.76q-2.76,0-2.89-4.39l0-1.54h-.56a2.32,2.32,0,0,0-1.58.46,1.88,1.88,0,0,0-.51,1.47,6,6,0,0,0,.7,2.56l-1.05.42a6.4,6.4,0,0,1-.57-1.47,6.32,6.32,0,0,1-.21-1.6,3.44,3.44,0,0,1,.72-2.4,3,3,0,0,1,2.32-.78h6.21Zm-1,3.1a2.78,2.78,0,0,0-.71-2,2.62,2.62,0,0,0-2-.73H86l.06,1.37a5,5,0,0,0,.51,2.36,1.54,1.54,0,0,0,1.41.72,1.42,1.42,0,0,0,1.14-.45A1.86,1.86,0,0,0,89.51,336.1Z"/><path class="cls-3" d="M89.51,325.91a4.89,4.89,0,0,0-.17-1.24H90.4a2.51,2.51,0,0,1,.18.66,4.93,4.93,0,0,1,.07.78q0,2.63-2.78,2.63H82.45V330h-.66l-.57-1.3-1.94-.58v-.79h2.11v-2.63h1.07v2.63h5.35a1.84,1.84,0,0,0,1.26-.39A1.34,1.34,0,0,0,89.51,325.91Z"/><path class="cls-3" d="M78.92,322.66a.92.92,0,0,1-.69-.23.85.85,0,0,1,0-1.15.9.9,0,0,1,.69-.24.92.92,0,0,1,.69.24.8.8,0,0,1,.23.57.79.79,0,0,1-.23.58A.93.93,0,0,1,78.92,322.66Zm11.56-1.49v1.37h-9.1v-1.37Z"/><path class="cls-3" d="M90.48,316l-9.1,3.44v-1.47l5.4-1.95a25.36,25.36,0,0,1,2.46-.78v-.07a18.62,18.62,0,0,1-1.82-.57l-6-2.17v-1.47l9.1,3.44Z"/><path class="cls-3" d="M90.48,303.58l-1.29.27v.07a3.81,3.81,0,0,1,1.16,1.35,4.1,4.1,0,0,1,.3,1.68,3,3,0,0,1-.7,2.11,2.55,2.55,0,0,1-2,.76q-2.76,0-2.89-4.39l0-1.54h-.56a2.32,2.32,0,0,0-1.58.46,1.88,1.88,0,0,0-.51,1.47,6,6,0,0,0,.7,2.56l-1.05.42a6.4,6.4,0,0,1-.57-1.47,6.32,6.32,0,0,1-.21-1.6,3.44,3.44,0,0,1,.72-2.4,3,3,0,0,1,2.32-.78h6.21Zm-1,3.1a2.78,2.78,0,0,0-.71-2,2.62,2.62,0,0,0-2-.73H86l.06,1.37a5,5,0,0,0,.51,2.36,1.54,1.54,0,0,0,1.41.72,1.42,1.42,0,0,0,1.14-.45A1.86,1.86,0,0,0,89.51,306.68Z"/><path class="cls-3" d="M88,293.58a2.28,2.28,0,0,1,2,.94,4.41,4.41,0,0,1,.69,2.64,5.72,5.72,0,0,1-.57,2.81H88.8a6.78,6.78,0,0,0,.52-1.4,5.82,5.82,0,0,0,.19-1.44,3.26,3.26,0,0,0-.34-1.65,1.19,1.19,0,0,0-2-.12,7.17,7.17,0,0,0-.89,1.79,9.68,9.68,0,0,1-.83,1.8,2.46,2.46,0,0,1-.8.79,2.09,2.09,0,0,1-1.07.26,2,2,0,0,1-1.76-.9,4.18,4.18,0,0,1-.64-2.47,7.2,7.2,0,0,1,.6-2.86l1.12.49a6.53,6.53,0,0,0-.56,2.47,2.83,2.83,0,0,0,.31,1.47,1,1,0,0,0,.85.5,1,1,0,0,0,.62-.19,1.84,1.84,0,0,0,.49-.6,13.39,13.39,0,0,0,.67-1.59,5.92,5.92,0,0,1,1.19-2.18A2.1,2.1,0,0,1,88,293.58Z"/><path class="cls-3" d="M89.26,280.15v.07a3.22,3.22,0,0,1,1.39,2.84,3.35,3.35,0,0,1-1.22,2.76,5.39,5.39,0,0,1-3.47,1,5.48,5.48,0,0,1-3.49-1,3.33,3.33,0,0,1-1.25-2.76,3.29,3.29,0,0,1,1.34-2.83v-.11l-.66.06-.64,0h-3.7v-1.37H90.48V280Zm.23,2.74a2.49,2.49,0,0,0-.77-2,3.89,3.89,0,0,0-2.48-.63H86a4.58,4.58,0,0,0-2.76.64,2.42,2.42,0,0,0-.83,2,2.1,2.1,0,0,0,.94,1.85,4.7,4.7,0,0,0,2.66.64,4.5,4.5,0,0,0,2.63-.64A2.15,2.15,0,0,0,89.49,282.89Z"/><path class="cls-3" d="M90.65,271.8A4.15,4.15,0,0,1,89.42,275,4.77,4.77,0,0,1,86,276.13a5.3,5.3,0,0,1-3.49-1.08,3.57,3.57,0,0,1-1.29-2.9,3.41,3.41,0,0,1,1.13-2.69,4.32,4.32,0,0,1,3-1h.87v6.24a3.61,3.61,0,0,0,2.43-.81,2.78,2.78,0,0,0,.83-2.15,7.25,7.25,0,0,0-.61-2.89h1.23a7.24,7.24,0,0,1,.45,1.38A7.73,7.73,0,0,1,90.65,271.8Zm-8.28.37a2.23,2.23,0,0,0,.71,1.74,3.3,3.3,0,0,0,2,.76v-4.73a3,3,0,0,0-2,.58A2,2,0,0,0,82.37,272.17Z"/><path class="cls-3" d="M90.48,259.73v1.37H77.56v-1.37Z"/><path class="cls-3" d="M85.92,248.69a5,5,0,0,1,3.47,1.12,3.92,3.92,0,0,1,1.25,3.08,4.06,4.06,0,0,1-.57,2.16,3.78,3.78,0,0,1-1.64,1.45,5.75,5.75,0,0,1-2.51.51,5,5,0,0,1-3.47-1.11,3.9,3.9,0,0,1-1.24-3.07,3.82,3.82,0,0,1,1.27-3A5,5,0,0,1,85.92,248.69Zm0,6.9a4.33,4.33,0,0,0,2.66-.69,2.74,2.74,0,0,0,0-4.08,4.31,4.31,0,0,0-2.66-.7,4.24,4.24,0,0,0-2.64.7,2.45,2.45,0,0,0-.9,2.06,2.41,2.41,0,0,0,.89,2A4.29,4.29,0,0,0,85.92,255.58Z"/><path class="cls-3" d="M88,240.12a2.28,2.28,0,0,1,2,.94,4.41,4.41,0,0,1,.69,2.64,5.72,5.72,0,0,1-.57,2.81H88.8a6.78,6.78,0,0,0,.52-1.4,5.82,5.82,0,0,0,.19-1.44,3.26,3.26,0,0,0-.34-1.65,1.19,1.19,0,0,0-2-.12,7.17,7.17,0,0,0-.89,1.79,9.68,9.68,0,0,1-.83,1.8,2.46,2.46,0,0,1-.8.79,2.09,2.09,0,0,1-1.07.26,2,2,0,0,1-1.76-.9,4.18,4.18,0,0,1-.64-2.47,7.2,7.2,0,0,1,.6-2.86l1.12.49a6.53,6.53,0,0,0-.56,2.47,2.83,2.83,0,0,0,.31,1.47,1,1,0,0,0,.85.5,1,1,0,0,0,.62-.19,1.84,1.84,0,0,0,.49-.6,13.39,13.39,0,0,0,.67-1.59,5.92,5.92,0,0,1,1.19-2.18A2.1,2.1,0,0,1,88,240.12Z"/><path class="cls-3" d="M81.38,225.45h.87l.2,1.68a3,3,0,0,1,1.82-.59,2.7,2.7,0,0,1,2.13.91,3.65,3.65,0,0,1,.8,2.49,4.13,4.13,0,0,1-.07.76,1.36,1.36,0,0,0,1.17.88.59.59,0,0,0,.55-.31,2.22,2.22,0,0,0,.18-1v-1.6a3.58,3.58,0,0,1,.62-2.26,2.17,2.17,0,0,1,1.81-.79,2.59,2.59,0,0,1,2.3,1.21,6.42,6.42,0,0,1,.79,3.52A4.79,4.79,0,0,1,93.9,233,2.15,2.15,0,0,1,92,234a2.11,2.11,0,0,1-1.44-.53,2.69,2.69,0,0,1-.82-1.49,1.44,1.44,0,0,1-.49.58,1.3,1.3,0,0,1-.77.24,1.47,1.47,0,0,1-.87-.26,2.78,2.78,0,0,1-.72-.83,2.45,2.45,0,0,1-1,1.14,2.91,2.91,0,0,1-1.59.44,3,3,0,0,1-2.3-.89,3.63,3.63,0,0,1-.81-2.53,4.57,4.57,0,0,1,.17-1.28Zm2.91,6.48a1.86,1.86,0,0,0,1.44-.54,2.14,2.14,0,0,0,.49-1.5,1.75,1.75,0,0,0-2-2,1.8,1.8,0,0,0-2.05,2,2,2,0,0,0,.52,1.49A2.11,2.11,0,0,0,84.3,231.92Zm7.71.74a1.24,1.24,0,0,0,1.12-.62,3.41,3.41,0,0,0,.38-1.78,4.93,4.93,0,0,0-.52-2.56,1.59,1.59,0,0,0-1.41-.83,1.11,1.11,0,0,0-1,.45,3.5,3.5,0,0,0-.29,1.71v1.64a2.16,2.16,0,0,0,.45,1.45A1.61,1.61,0,0,0,92,232.67Z"/><path class="cls-3" d="M81.22,219.14a5.34,5.34,0,0,1,.1-1.08l1.28.19a4.65,4.65,0,0,0-.12,1,2.41,2.41,0,0,0,.9,1.88,3.28,3.28,0,0,0,2.23.78h4.88v1.37h-9.1v-1.13l1.69-.16v-.07a4,4,0,0,1-1.37-1.21A2.73,2.73,0,0,1,81.22,219.14Z"/><path class="cls-3" d="M81.38,214.75h5.9a2.38,2.38,0,0,0,1.66-.5,2,2,0,0,0,.55-1.58,2.57,2.57,0,0,0-.78-2.08,4,4,0,0,0-2.55-.66H81.38v-1.37h9.1v1.13l-1.22.2V210a2.74,2.74,0,0,1,1,1.17,3.91,3.91,0,0,1,.36,1.71,3.45,3.45,0,0,1-.79,2.47,3.36,3.36,0,0,1-2.52.82h-6Z"/><path class="cls-3" d="M90.65,201.13a3.9,3.9,0,0,1-.33,1.62,3,3,0,0,1-1,1.23v.1a12.2,12.2,0,0,1,1.51-.1h3.74v1.37H81.38v-1.11l1.25-.19V204a3.18,3.18,0,0,1-1.08-1.23,3.73,3.73,0,0,1-.33-1.61,3.34,3.34,0,0,1,1.24-2.78,6.61,6.61,0,0,1,7,0A3.34,3.34,0,0,1,90.65,201.13Zm-8.26.2a2.42,2.42,0,0,0,.77,2,4,4,0,0,0,2.46.64h.31a4.57,4.57,0,0,0,2.74-.64,2.41,2.41,0,0,0,.83-2,2.12,2.12,0,0,0-1-1.84,4.55,4.55,0,0,0-2.63-.66,4.38,4.38,0,0,0-2.61.66A2.19,2.19,0,0,0,82.39,201.32Z"/><path class="cls-3" d="M85.92,186.84A5,5,0,0,1,89.4,188,3.92,3.92,0,0,1,90.65,191a4.06,4.06,0,0,1-.57,2.16,3.78,3.78,0,0,1-1.64,1.45,5.75,5.75,0,0,1-2.51.51A5,5,0,0,1,82.46,194,3.9,3.9,0,0,1,81.22,191a3.82,3.82,0,0,1,1.27-3A5,5,0,0,1,85.92,186.84Zm0,6.9a4.33,4.33,0,0,0,2.66-.69,2.74,2.74,0,0,0,0-4.08,4.31,4.31,0,0,0-2.66-.7,4.24,4.24,0,0,0-2.64.7,2.45,2.45,0,0,0-.9,2.06,2.41,2.41,0,0,0,.89,2A4.29,4.29,0,0,0,85.92,193.73Z"/><path class="cls-3" d="M88,178.27a2.28,2.28,0,0,1,2,.94,4.41,4.41,0,0,1,.69,2.64,5.72,5.72,0,0,1-.57,2.81H88.8a6.78,6.78,0,0,0,.52-1.4,5.82,5.82,0,0,0,.19-1.44,3.26,3.26,0,0,0-.34-1.65,1.19,1.19,0,0,0-2-.12,7.17,7.17,0,0,0-.89,1.79,9.68,9.68,0,0,1-.83,1.8,2.46,2.46,0,0,1-.8.79,2.09,2.09,0,0,1-1.07.26,2,2,0,0,1-1.76-.9,4.18,4.18,0,0,1-.64-2.47,7.2,7.2,0,0,1,.6-2.86l1.12.49a6.53,6.53,0,0,0-.56,2.47,2.83,2.83,0,0,0,.31,1.47,1,1,0,0,0,.85.5,1,1,0,0,0,.62-.19,1.84,1.84,0,0,0,.49-.6,13.39,13.39,0,0,0,.67-1.59,5.92,5.92,0,0,1,1.19-2.18A2.1,2.1,0,0,1,88,178.27Z"/><path class="cls-3" d="M89.26,164.84v.07a3.22,3.22,0,0,1,1.39,2.84,3.35,3.35,0,0,1-1.22,2.76,5.39,5.39,0,0,1-3.47,1,5.48,5.48,0,0,1-3.49-1,3.33,3.33,0,0,1-1.25-2.76,3.29,3.29,0,0,1,1.34-2.83v-.11l-.66.06-.64,0h-3.7v-1.37H90.48v1.12Zm.23,2.74a2.49,2.49,0,0,0-.77-2,3.89,3.89,0,0,0-2.48-.63H86a4.58,4.58,0,0,0-2.76.64,2.42,2.42,0,0,0-.83,2,2.1,2.1,0,0,0,.94,1.85,4.7,4.7,0,0,0,2.66.64,4.5,4.5,0,0,0,2.63-.64A2.15,2.15,0,0,0,89.49,167.59Z"/><path class="cls-3" d="M90.65,156.49a4.15,4.15,0,0,1-1.23,3.17A4.77,4.77,0,0,1,86,160.82a5.3,5.3,0,0,1-3.49-1.08,3.57,3.57,0,0,1-1.29-2.9,3.41,3.41,0,0,1,1.13-2.69,4.32,4.32,0,0,1,3-1h.87v6.24a3.61,3.61,0,0,0,2.43-.81,2.78,2.78,0,0,0,.83-2.15,7.26,7.26,0,0,0-.61-2.89h1.23a7.26,7.26,0,0,1,.45,1.38A7.73,7.73,0,0,1,90.65,156.49Zm-8.28.37a2.23,2.23,0,0,0,.71,1.74,3.3,3.3,0,0,0,2,.76v-4.73a3,3,0,0,0-2,.58A2,2,0,0,0,82.37,156.87Z"/><path class="cls-3" d="M78.92,145.91a.92.92,0,0,1-.69-.23.85.85,0,0,1,0-1.15.9.9,0,0,1,.69-.24.91.91,0,0,1,.69.24.8.8,0,0,1,.23.57.79.79,0,0,1-.23.58A.93.93,0,0,1,78.92,145.91Zm11.56-1.49v1.37h-9.1v-1.37Z"/><path class="cls-3" d="M90.48,135H84.6a2.38,2.38,0,0,0-1.66.5,2,2,0,0,0-.55,1.58,2.59,2.59,0,0,0,.77,2.08,3.91,3.91,0,0,0,2.55.66h4.77v1.37h-9.1v-1.12l1.25-.22v-.07a2.8,2.8,0,0,1-1-1.18,3.82,3.82,0,0,1-.37-1.69,3.43,3.43,0,0,1,.79-2.46,3.38,3.38,0,0,1,2.54-.83h5.94Z"/><path class="cls-3" d="M89.51,127.56a4.44,4.44,0,0,0-.05-.7,4.49,4.49,0,0,0-.11-.54H90.4a2.51,2.51,0,0,1,.18.66,4.92,4.92,0,0,1,.07.78q0,2.63-2.78,2.63H82.45v1.3h-.66l-.57-1.3-1.94-.58V129h2.11v-2.63h1.07V129h5.35a1.85,1.85,0,0,0,1.26-.39A1.35,1.35,0,0,0,89.51,127.56Z"/><path class="cls-3" d="M90.65,120.37a4.15,4.15,0,0,1-1.23,3.17A4.77,4.77,0,0,1,86,124.7a5.29,5.29,0,0,1-3.49-1.08,3.57,3.57,0,0,1-1.29-2.9A3.41,3.41,0,0,1,82.34,118a4.32,4.32,0,0,1,3-1h.87v6.24a3.62,3.62,0,0,0,2.43-.81,2.78,2.78,0,0,0,.83-2.15,7.26,7.26,0,0,0-.61-2.89h1.23a7.26,7.26,0,0,1,.45,1.38A7.72,7.72,0,0,1,90.65,120.37Zm-8.28.37a2.23,2.23,0,0,0,.71,1.74,3.3,3.3,0,0,0,2,.76v-4.73a3,3,0,0,0-2,.58A2,2,0,0,0,82.37,120.74Z"/><path class="cls-3" d="M81.22,110.25a5.34,5.34,0,0,1,.1-1.08l1.28.19a4.65,4.65,0,0,0-.12,1,2.41,2.41,0,0,0,.9,1.88,3.28,3.28,0,0,0,2.23.78h4.88v1.37h-9.1v-1.13l1.69-.16V113a4,4,0,0,1-1.37-1.21A2.72,2.72,0,0,1,81.22,110.25Z"/><path class="cls-3" d="M80,104.72q-.51-.4-1.25-.85a14.22,14.22,0,0,0-1.27-.72v-1.67h.17a15.36,15.36,0,0,1,2.55,2.33v.92Zm10.67-1.39a4.15,4.15,0,0,1-1.23,3.17A4.77,4.77,0,0,1,86,107.66a5.29,5.29,0,0,1-3.49-1.08,3.57,3.57,0,0,1-1.29-2.9A3.41,3.41,0,0,1,82.34,101a4.32,4.32,0,0,1,3-1h.87v6.24a3.62,3.62,0,0,0,2.43-.81,2.78,2.78,0,0,0,.83-2.15,7.26,7.26,0,0,0-.61-2.89h1.23a7.26,7.26,0,0,1,.45,1.38A7.72,7.72,0,0,1,90.65,103.33Zm-8.28.37a2.23,2.23,0,0,0,.71,1.74,3.3,3.3,0,0,0,2,.76v-4.73a3,3,0,0,0-2,.58A2,2,0,0,0,82.37,103.71Z"/><path class="cls-3" d="M88,91.51a2.28,2.28,0,0,1,2,.94,4.41,4.41,0,0,1,.69,2.64,5.72,5.72,0,0,1-.57,2.81H88.8a6.77,6.77,0,0,0,.52-1.4,5.81,5.81,0,0,0,.19-1.44,3.26,3.26,0,0,0-.34-1.65,1.19,1.19,0,0,0-2-.12,7.2,7.2,0,0,0-.89,1.79,9.64,9.64,0,0,1-.83,1.8,2.45,2.45,0,0,1-.8.79,2.1,2.1,0,0,1-1.07.26,2,2,0,0,1-1.76-.9,4.18,4.18,0,0,1-.64-2.47,7.2,7.2,0,0,1,.6-2.86l1.12.49a6.53,6.53,0,0,0-.56,2.47,2.83,2.83,0,0,0,.31,1.47,1,1,0,0,0,.85.5,1,1,0,0,0,.62-.19,1.84,1.84,0,0,0,.49-.6,13.37,13.37,0,0,0,.67-1.59,5.92,5.92,0,0,1,1.19-2.18A2.1,2.1,0,0,1,88,91.51Z"/><path class="cls-3" d="M27.16,234.76a3.71,3.71,0,0,1-1.4,3.07,6.08,6.08,0,0,1-3.9,1.12,9.15,9.15,0,0,1-4.07-.86v-2.83a16.76,16.76,0,0,0,2.46.91,7.29,7.29,0,0,0,1.84.27,2.62,2.62,0,0,0,1.54-.38,1.31,1.31,0,0,0,.54-1.14,1.26,1.26,0,0,0-.24-.75,2.63,2.63,0,0,0-.69-.63,17.85,17.85,0,0,0-1.86-1,8.82,8.82,0,0,1-2-1.19A4.46,4.46,0,0,1,18.36,230a3.78,3.78,0,0,1-.39-1.77,3.71,3.71,0,0,1,1.29-3,5.37,5.37,0,0,1,3.57-1.09,8.44,8.44,0,0,1,2.14.27,14.64,14.64,0,0,1,2.13.75l-1,2.37a14.38,14.38,0,0,0-1.9-.66,6.14,6.14,0,0,0-1.48-.19,2,2,0,0,0-1.33.4,1.33,1.33,0,0,0-.46,1.05,1.3,1.3,0,0,0,.19.7,2.05,2.05,0,0,0,.59.58,18.28,18.28,0,0,0,1.93,1,7.69,7.69,0,0,1,2.76,1.93A3.77,3.77,0,0,1,27.16,234.76Z"/><path class="cls-3" d="M26.08,261l-1-3.42H19.8l-1,3.42H15.47l5.07-14.43h3.72L29.36,261Zm-1.77-6q-1.44-4.65-1.63-5.26t-.26-1Q22.1,250,20.56,255Z"/><path class="cls-3" d="M18.54,283.22V268.85h3v11.85h5.83v2.52Z"/><path class="cls-3" d="M20.89,305.46V291.09h3v14.37Z"/><path class="cls-3" d="M28.7,320.38a7.08,7.08,0,0,1-2,5.43,8.24,8.24,0,0,1-5.83,1.89H16.78V313.33h4.51a7.6,7.6,0,0,1,5.46,1.86A6.83,6.83,0,0,1,28.7,320.38Zm-3.16.08q0-4.63-4.09-4.63H19.82v9.35h1.31Q25.53,325.18,25.53,320.46Z"/><path class="cls-3" d="M26.08,349.94l-1-3.42H19.8l-1,3.42H15.47l5.07-14.43h3.72l5.09,14.43Zm-1.77-6q-1.44-4.65-1.63-5.26t-.26-1Q22.1,339,20.56,344Z"/><path class="cls-3" d="M27.16,368.18a3.71,3.71,0,0,1-1.4,3.07,6.08,6.08,0,0,1-3.9,1.12,9.15,9.15,0,0,1-4.07-.87v-2.83a16.72,16.72,0,0,0,2.46.91,7.29,7.29,0,0,0,1.84.27,2.62,2.62,0,0,0,1.54-.38,1.31,1.31,0,0,0,.54-1.14,1.26,1.26,0,0,0-.24-.75,2.65,2.65,0,0,0-.69-.63,17.92,17.92,0,0,0-1.86-1,8.88,8.88,0,0,1-2-1.19,4.47,4.47,0,0,1-1.05-1.33,3.78,3.78,0,0,1-.39-1.77,3.72,3.72,0,0,1,1.29-3,5.37,5.37,0,0,1,3.57-1.09,8.4,8.4,0,0,1,2.14.27,14.63,14.63,0,0,1,2.13.75l-1,2.37a14.33,14.33,0,0,0-1.9-.66,6.14,6.14,0,0,0-1.48-.19,2,2,0,0,0-1.33.4,1.33,1.33,0,0,0-.46,1.05,1.3,1.3,0,0,0,.19.7,2,2,0,0,0,.59.58,18,18,0,0,0,1.93,1,7.69,7.69,0,0,1,2.76,1.93A3.77,3.77,0,0,1,27.16,368.18Z"/></svg>